<svg xmlns="http://www.w3.org/2000/svg" viewBox="0 0 96 96" role="img" aria-labelledby="title desc">
  <title id="title">Dutch Goose logo</title>
  <desc id="desc">Een witte gans met een banaan en kiwi op een groene afgeronde achtergrond.</desc>
  <defs>
    <linearGradient id="bg" x1="0" y1="0" x2="1" y2="1">
      <stop offset="0%" stop-color="#2f7f72"/>
      <stop offset="100%" stop-color="#286f65"/>
    </linearGradient>
    <linearGradient id="banana" x1="0" y1="0" x2="1" y2="1">
      <stop offset="0%" stop-color="#f6eca0"/>
      <stop offset="60%" stop-color="#ead35d"/>
      <stop offset="100%" stop-color="#d4bc46"/>
    </linearGradient>
    <linearGradient id="kiwi" x1="0" y1="0" x2="1" y2="1">
      <stop offset="0%" stop-color="#b5cb54"/>
      <stop offset="100%" stop-color="#7e9c2a"/>
    </linearGradient>
  </defs>
  <rect width="96" height="96" rx="18" fill="url(#bg)"/>
  <path d="M34 58c6-6 13-10 22-10 5 0 10 2 14 5-3-8-6-15-6-24 0-7 2-12 6-16 3-4 7-6 12-6 6 0 11 4 13 10 1 5 0 11-4 15-4 4-8 6-13 7-3 1-5 1-7 1 1 4 3 7 6 12 4 8 4 18-1 25-6 8-14 12-24 12-9 0-17-3-24-9-2-2-1-6 2-7 2-1 4-1 6 0z" fill="#fff" opacity=".95"/>
  <path d="M60 46c0-10 2-18 7-24 4-6 11-10 18-10 5 0 9 3 10 8 1 4 0 8-3 11-4 4-10 6-17 6h-4c2 5 4 10 4 16 0 8-2 14-7 18l-8-25z" fill="#fff"/>
  <path d="M78 16c3 0 6 2 7 5 1 3 0 6-2 8-2 2-4 3-7 4-4 1-7 1-10 0 1-5 3-9 6-13 2-2 4-4 6-4z" fill="#fff"/>
  <path d="M82 17c4 0 8 3 8 7 0 1-1 2-2 3l-11-2c0-2 1-4 3-5 1-2 2-3 2-3z" fill="#eca146"/>
  <path d="M76 22c1 0 2 0 3 1l7 7c0 1-1 1-2 1l-10-1c-2 0-3-1-4-2 0-2 0-4 2-5 1-1 3-1 4-1z" fill="#dd7f2b"/>
  <circle cx="77.5" cy="18.5" r="2.5" fill="#234f49"/>
  <circle cx="78.3" cy="17.8" r=".8" fill="#fff"/>
  <path d="M44 51c8-8 17-11 28-10 1 0 2 1 2 2 0 2-2 3-3 3-7 0-13 2-18 5-5 3-9 8-12 13-1 2-3 2-4 1-2-1-2-3-1-4 2-4 5-7 8-10z" fill="#2a7c71"/>
  <path d="M28 66c5-8 13-14 23-16 8-2 17-1 24 2-3 13-13 23-28 23-8 0-15-3-22-8 0 0 1-1 3-1z" fill="url(#banana)"/>
  <path d="M61 49c5 0 10 1 14 4-2 4-5 7-9 9-4 2-8 4-13 4-5 0-9-1-13-4 2-5 5-8 9-10 4-2 8-3 12-3z" fill="url(#kiwi)"/>
  <path d="M61 53c3 0 6 1 8 2-1 2-3 4-5 5-3 1-5 2-8 2s-6-1-8-2c2-2 4-4 6-5 2-1 5-2 7-2z" fill="#d6e290"/>
  <g fill="#3d331d">
    <ellipse cx="48" cy="58" rx="1" ry="2"/>
    <ellipse cx="51" cy="55.5" rx="1" ry="2"/>
    <ellipse cx="54.5" cy="54" rx="1" ry="2"/>
    <ellipse cx="58" cy="53.5" rx="1" ry="2"/>
    <ellipse cx="61.5" cy="54" rx="1" ry="2"/>
    <ellipse cx="65" cy="55.5" rx="1" ry="2"/>
    <ellipse cx="68" cy="58" rx="1" ry="2"/>
    <ellipse cx="50" cy="61.5" rx="1" ry="2"/>
    <ellipse cx="54" cy="60.5" rx="1" ry="2"/>
    <ellipse cx="58" cy="60" rx="1" ry="2"/>
    <ellipse cx="62" cy="60.5" rx="1" ry="2"/>
    <ellipse cx="66" cy="61.5" rx="1" ry="2"/>
  </g>
  <path d="M23 60c7-1 13 1 19 5-5 1-10 2-15 1-5-1-9-3-12-6 2 0 5-1 8 0z" fill="#fff"/>
  <path d="M19 64c5 2 11 5 16 9-5 0-10-1-14-4-3-2-6-4-8-7 2 0 4 1 6 2z" fill="#fff"/>
</svg>
