<svg xmlns="http://www.w3.org/2000/svg" viewBox="0 0 1200 760" role="img" aria-labelledby="t d"><title id="t">Hoofdthema mentaal na maagverkleining</title><desc id="d">Illustratie met grenzen, hoofd versus buik en sociale situaties.</desc><rect width="1200" height="760" rx="48" fill="#3d5f6f"/><rect x="42" y="42" width="1116" height="676" rx="40" fill="#4f7686" stroke="#bfd6df" stroke-width="4"/><rect x="108" y="120" width="330" height="520" rx="34" fill="#f7fbfa"/><text x="152" y="188" font-family="Nunito,Arial,sans-serif" font-size="36" font-weight="800" fill="#1a2b28">Hoofd of buik?</text><circle cx="206" cy="304" r="74" fill="#dff4ee"/><path d="M176 300c8-30 58-42 78-8 16 28-3 66-41 66-32 0-54-22-54-50 0-14 5-28 17-36" fill="none" stroke="#1a7c6b" stroke-width="12" stroke-linecap="round"/><rect x="280" y="248" width="108" height="22" rx="11" fill="#bfd6df"/><rect x="280" y="288" width="90" height="22" rx="11" fill="#bfd6df"/><rect x="280" y="328" width="118" height="22" rx="11" fill="#bfd6df"/><rect x="492" y="120" width="608" height="228" rx="34" fill="#f7fbfa"/><text x="536" y="182" font-family="Nunito,Arial,sans-serif" font-size="36" font-weight="800" fill="#1a2b28">Grenzen in sociale situaties</text><rect x="536" y="226" width="234" height="74" rx="22" fill="#fff1da"/><text x="572" y="272" font-family="Inter,Arial,sans-serif" font-size="24" fill="#5f4d1f">Etentje</text><rect x="796" y="226" width="234" height="74" rx="22" fill="#dff4ee"/><text x="840" y="272" font-family="Inter,Arial,sans-serif" font-size="24" fill="#1a7c6b">Bemoeizucht</text><rect x="492" y="392" width="608" height="248" rx="34" fill="#f7fbfa"/><text x="536" y="454" font-family="Nunito,Arial,sans-serif" font-size="36" font-weight="800" fill="#1a2b28">Wat helpt vaak?</text><text x="536" y="504" font-family="Inter,Arial,sans-serif" font-size="26" fill="#4a6b64">eigen taal klaar hebben</text><text x="536" y="544" font-family="Inter,Arial,sans-serif" font-size="26" fill="#4a6b64">emotie en trek uit elkaar halen</text><text x="536" y="584" font-family="Inter,Arial,sans-serif" font-size="26" fill="#4a6b64">ruimte maken voor wennen</text></svg>