<?xml version="1.0" encoding="UTF-8"?>
<svg id="Laag_1" data-name="Laag 1" xmlns="http://www.w3.org/2000/svg" version="1.1" xmlns:xlink="http://www.w3.org/1999/xlink" viewBox="0 0 473 260">
  <defs>
    <style>
      .cls-1 {
        fill: url(#Naamloos_verloop_860-2);
      }

      .cls-1, .cls-2, .cls-3 {
        stroke-width: 0px;
      }

      .cls-2 {
        fill: #1d1d1b;
      }

      .cls-3 {
        fill: url(#Naamloos_verloop_860);
      }
    </style>
    <linearGradient id="Naamloos_verloop_860" data-name="Naamloos verloop 860" x1="113.4" y1="105.6" x2="380.7" y2="105.6" gradientUnits="userSpaceOnUse">
      <stop offset="0" stop-color="#b377b1"/>
      <stop offset="1" stop-color="#71c0ec"/>
    </linearGradient>
    <linearGradient id="Naamloos_verloop_860-2" data-name="Naamloos verloop 860" x1="113.4" y1="105.6" x2="380.7" y2="105.6" xlink:href="#Naamloos_verloop_860"/>
  </defs>
  <g>
    <path class="cls-3" d="M214,117.4c-6.7,16.8-26,24.5-42.6,17.2-16.4-7.2-23.5-27.1-15.4-43.3,9.8-19.7,35.4-23.7,51.4-7.9,17.4,17.2,34.6,34.7,52,51.9,14.6,14.4,37.3,15.8,53.8,3.7,16.4-12,21.6-34.3,12.4-52.5-9.1-18-30.1-27.2-49.3-20.7-6.2,2.1-11.8,6.5-17.4,10.2-3.7,2.4-7.4,2.7-10.2-.1-2.9-2.9-2.9-7.2.2-10.5.7-.7,1.4-1.4,2.2-2.1,18.5-16.5,45.9-18.8,67.1-5.8,21.1,13,31.3,38.9,24.7,62.7-6.8,24.4-28.3,41.2-53.4,41.5-15.9.2-29.5-5.3-40.8-16.4-10.8-10.7-21.4-21.6-32.7-32.9-.9,2.3-1.3,3.6-1.9,4.9ZM167.3,105.7c0,9.4,7.7,17,17.2,17,9.5,0,17.2-7.6,17.3-17,0-9.6-7.8-17.3-17.5-17.2-9.4,0-17,7.8-17,17.2Z"/>
    <path class="cls-1" d="M259.1,93.4c6.5-15.7,24.4-23.6,40.4-17.7,16.2,6,24.7,23.8,19.2,40-7.7,22.8-35.9,29-53.4,11.7-17.4-17.3-34.5-34.8-52-51.9-14.5-14.2-37-15.5-53.5-3.5-16.4,11.9-21.7,34.2-12.5,52.5,8.9,17.8,29.6,26.7,48.9,21.1,6.8-2,12.6-5.7,17.8-10.5,3.3-3.1,7.7-2.8,10.5.2,2.6,2.9,2.5,7-.4,10.2-.8.9-1.6,1.6-2.5,2.4-18.5,16.4-46.1,18.6-67.1,5.3-20.9-13.1-30.9-38.7-24.4-62.4,11.4-41.6,62.9-55.7,93.8-25.6,11,10.7,21.7,21.7,33.1,33.2.9-2.3,1.5-3.8,2.1-5.2ZM271.2,105.4c-.1,9.5,7.8,17.4,17.4,17.3,9.5,0,17.1-7.7,17.1-17.1,0-9.4-7.6-17.1-17.1-17.1-9.5,0-17.2,7.5-17.3,16.9Z"/>
  </g>
  <g>
    <path class="cls-2" d="M48.7,183.7l-8.7,26.7h-8.5l-8.7-26.7h8.1l3.6,13.5c.1.5.3,1.2.5,2s.3,1.6.5,2.4.2,1.4.3,1.9c0-.5.1-1.1.3-1.9.1-.8.3-1.6.4-2.3s.3-1.4.5-1.9l3.7-13.6h8.1Z"/>
    <path class="cls-2" d="M51.6,210.4v-26.7h7.2v26.7h-7.2Z"/>
    <path class="cls-2" d="M76.4,210.4h-7.2v-20.8h-6.5v-5.9h20.2v5.9h-6.5v20.8Z"/>
    <path class="cls-2" d="M103,210.4l-1.3-5h-8.7l-1.3,5h-7.9l8.7-26.8h9.6l8.8,26.8h-7.9ZM100.2,199.5l-1.1-4.4c-.1-.5-.3-1.2-.5-2s-.5-1.8-.7-2.7-.4-1.7-.5-2.3c-.1.6-.3,1.4-.5,2.3s-.4,1.8-.6,2.7-.4,1.6-.6,2.2l-1.1,4.4h5.7Z"/>
    <path class="cls-2" d="M125.4,210.4l-5.5-19.2h-.2c0,.5.1,1.2.2,2s.1,1.8.2,2.8,0,1.9,0,2.8v11.6h-6.4v-26.7h9.6l5.6,18.9h.1l5.5-18.9h9.6v26.7h-6.6v-11.7c0-.8,0-1.7,0-2.7s0-1.9.1-2.7,0-1.5.1-2h-.2l-5.4,19.2h-6.9Z"/>
    <path class="cls-2" d="M149.9,210.4v-26.7h7.2v26.7h-7.2Z"/>
    <path class="cls-2" d="M188.3,210.4h-9.4l-9.7-18.8h-.2c0,.6.1,1.3.2,2.1s0,1.6.1,2.5,0,1.6,0,2.3v12h-6.4v-26.7h9.4l9.7,18.5h.1c0-.6,0-1.3-.1-2s0-1.6-.1-2.3,0-1.5,0-2.1v-12.1h6.4v26.7Z"/>
    <path class="cls-2" d="M209.8,210.4h-15.8v-26.7h15.8v5.8h-8.6v4.2h8v5.8h-8v5h8.6v5.9Z"/>
    <path class="cls-2" d="M239.9,210.4h-9.4l-9.7-18.8h-.2c0,.6.1,1.3.2,2.1s0,1.6.1,2.5,0,1.6,0,2.3v12h-6.4v-26.7h9.4l9.7,18.5h.1c0-.6,0-1.3-.1-2s0-1.6-.1-2.3,0-1.5,0-2.1v-12.1h6.4v26.7Z"/>
    <path class="cls-2" d="M263.1,202.3c0,1.4-.4,2.8-1.1,4.1s-1.9,2.3-3.4,3.1c-1.5.8-3.5,1.2-6,1.2s-2.3,0-3.2-.2-1.8-.3-2.6-.5-1.6-.6-2.5-1v-6.4c1.4.7,2.9,1.3,4.4,1.7s2.8.6,4,.6,1.3,0,1.8-.3.8-.4,1-.7.3-.6.3-1-.2-.9-.5-1.2-.8-.7-1.5-1-1.6-.8-2.8-1.3c-1-.5-1.9-.9-2.7-1.4s-1.5-1-2-1.7-1-1.4-1.3-2.2-.5-1.8-.5-3c0-1.7.4-3.2,1.3-4.3.8-1.2,2-2,3.5-2.6,1.5-.6,3.3-.9,5.2-.9s3.3.2,4.7.6c1.4.4,2.6.8,3.7,1.3l-2.2,5.6c-1.1-.5-2.3-.9-3.4-1.2s-2.1-.5-3.1-.5-1.1,0-1.5.2-.7.4-.9.6-.3.5-.3.9.2.8.5,1.1.9.7,1.6,1.1,1.8.9,3.1,1.5c1.3.6,2.4,1.2,3.3,1.9s1.6,1.5,2.1,2.4.7,2.1.7,3.5Z"/>
    <path class="cls-2" d="M276.4,183.7c3.4,0,5.9.7,7.6,2.2,1.7,1.5,2.5,3.6,2.5,6.3s-.2,2.4-.5,3.5-.9,2.1-1.7,3-1.8,1.6-3.1,2.1-2.9.8-4.8.8h-2v8.8h-7.2v-26.7h9.2ZM276.3,189.6h-1.9v6.1h1.4c.6,0,1.2-.1,1.7-.3s1-.6,1.3-1,.5-1.1.5-1.9-.2-1.5-.7-2.1-1.3-.8-2.3-.8Z"/>
    <path class="cls-2" d="M306.6,210.4h-15.8v-26.7h15.8v5.8h-8.6v4.2h8v5.8h-8v5h8.6v5.9Z"/>
    <path class="cls-2" d="M323.1,189.3c-.9,0-1.6.2-2.3.5s-1.2.9-1.7,1.6c-.5.7-.8,1.5-1.1,2.5s-.4,2.1-.4,3.3.2,3.1.6,4.2,1.1,2,1.9,2.6,2,.9,3.3.9,2.3-.2,3.4-.5,2.2-.7,3.3-1.2v6.1c-1.2.5-2.4.9-3.6,1.1-1.2.2-2.5.3-3.9.3-2.9,0-5.3-.6-7.1-1.7-1.8-1.1-3.2-2.7-4.1-4.8-.9-2-1.3-4.4-1.3-7.1s.3-3.9.8-5.5,1.4-3.1,2.5-4.4,2.4-2.2,4.1-2.9,3.5-1,5.5-1,2.6.1,4.1.4,2.8.8,4.2,1.4l-2.2,5.7c-1-.5-2-.9-3-1.2s-2.1-.5-3.2-.5Z"/>
    <path class="cls-2" d="M335.5,210.4v-26.7h7.2v26.7h-7.2Z"/>
    <path class="cls-2" d="M364.9,210.4l-1.3-5h-8.7l-1.3,5h-7.9l8.7-26.8h9.6l8.8,26.8h-7.9ZM362.1,199.5l-1.1-4.4c-.1-.5-.3-1.2-.5-2s-.5-1.8-.7-2.7-.4-1.7-.5-2.3c-.1.6-.3,1.4-.5,2.3-.2.9-.4,1.8-.6,2.7s-.4,1.6-.6,2.2l-1.1,4.4h5.7Z"/>
    <path class="cls-2" d="M375.6,210.4v-26.7h7.2v20.8h10.3v5.8h-17.5Z"/>
    <path class="cls-2" d="M397.4,210.4v-26.7h7.2v26.7h-7.2Z"/>
    <path class="cls-2" d="M427.8,202.3c0,1.4-.4,2.8-1.1,4.1s-1.9,2.3-3.4,3.1-3.5,1.2-6,1.2-2.3,0-3.2-.2-1.8-.3-2.6-.5-1.6-.6-2.5-1v-6.4c1.4.7,2.9,1.3,4.4,1.7,1.5.4,2.8.6,4,.6s1.3,0,1.8-.3.8-.4,1-.7.3-.6.3-1-.2-.9-.5-1.2-.8-.7-1.5-1-1.6-.8-2.8-1.3c-1-.5-1.9-.9-2.7-1.4-.8-.5-1.5-1-2-1.7s-1-1.4-1.3-2.2-.5-1.8-.5-3c0-1.7.4-3.2,1.3-4.3s2-2,3.5-2.6c1.5-.6,3.3-.9,5.2-.9s3.3.2,4.7.6,2.6.8,3.7,1.3l-2.2,5.6c-1.1-.5-2.3-.9-3.4-1.2s-2.1-.5-3.1-.5-1.1,0-1.5.2-.7.4-.9.6-.3.5-.3.9.2.8.5,1.1.9.7,1.6,1.1c.8.4,1.8.9,3.1,1.5,1.3.6,2.4,1.2,3.3,1.9s1.6,1.5,2.1,2.4.7,2.1.7,3.5Z"/>
    <path class="cls-2" d="M443.7,210.4h-7.2v-20.8h-6.5v-5.9h20.2v5.9h-6.5v20.8Z"/>
  </g>
</svg>