<svg width="142" height="53" viewBox="0 0 142 53" fill="none" xmlns="http://www.w3.org/2000/svg">
<g clip-path="url(#clip0_4588_785)">
<path d="M20.1576 4.49191H42.4877C43.5404 4.49191 44.3915 3.63489 44.3915 2.57489C44.3915 1.51489 43.5404 0.657867 42.4877 0.657867H20.1576C19.1049 0.657867 18.2538 1.51489 18.2538 2.57489C18.2538 3.63489 19.1049 4.49191 20.1576 4.49191Z" fill="white"/>
<path d="M31.1323 11.7766H20.1576C19.1049 11.7766 18.2538 12.6336 18.2538 13.6936V25.083C18.2538 26.143 19.1049 27 20.1576 27C21.2103 27 22.0614 26.143 22.0614 25.083V15.5881H31.1323C32.1849 15.5881 33.036 14.7311 33.036 13.6711C33.036 12.6111 32.1849 11.754 31.1323 11.754V11.7766Z" fill="white"/>
<path d="M83.4972 23.1209L71.7162 18.9711C70.9995 18.7455 70.5291 18.0915 70.5291 17.3247C70.5291 16.5579 71.2906 15.5881 72.2313 15.5881H82.9149C83.9675 15.5881 84.8186 14.7311 84.8186 13.6711C84.8186 12.6111 83.9675 11.754 82.9149 11.754H72.2313C69.2077 11.754 66.744 14.2575 66.744 17.3247C66.744 20.3919 68.2894 21.8804 70.5739 22.6247L82.3325 26.7745C83.0492 27 83.5196 27.654 83.5196 28.4209C83.5196 29.1877 82.7581 30.1575 81.8174 30.1575H67.7743C66.7216 30.1575 65.8705 31.0145 65.8705 32.0745C65.8705 33.1345 66.7216 33.9915 67.7743 33.9915H81.8174C84.841 33.9915 87.3047 31.4881 87.3047 28.4209C87.3047 25.3536 85.7593 23.8651 83.4748 23.1209H83.4972Z" fill="white"/>
<path d="M137.788 23.1209L126.007 18.9711C125.291 18.7455 124.82 18.0915 124.82 17.3247C124.82 16.5579 125.582 15.5881 126.522 15.5881H137.206C138.259 15.5881 139.11 14.7311 139.11 13.6711C139.11 12.6111 138.259 11.754 137.206 11.754H126.522C123.499 11.754 121.035 14.2575 121.035 17.3247C121.035 20.3919 122.581 21.8804 124.865 22.6247L136.624 26.7745C137.34 27 137.811 27.654 137.811 28.4209C137.811 29.1877 137.049 30.1575 136.108 30.1575H122.065C121.013 30.1575 120.162 31.0145 120.162 32.0745C120.162 33.1345 121.013 33.9915 122.065 33.9915H136.108C139.132 33.9915 141.596 31.4881 141.596 28.4209C141.596 25.3536 140.05 23.8651 137.766 23.1209H137.788Z" fill="white"/>
<path d="M55.7917 17.3021C55.7917 14.2574 53.328 11.7766 50.3044 11.7766H37.941C36.8884 11.7766 36.0373 12.6336 36.0373 13.6936V32.1647C36.0373 33.2247 36.8884 34.0817 37.941 34.0817C38.9937 34.0817 39.8448 33.2247 39.8448 32.1647V26.5264L44.1899 25.1281L52.2977 33.4728C52.6561 33.8336 53.1264 34.0366 53.6416 34.0366C54.1567 34.0366 54.6046 33.8336 54.963 33.4953C55.7021 32.7511 55.7245 31.5557 54.9854 30.7889L48.199 23.7974L51.9618 22.5796C54.2463 21.8579 55.7917 19.7379 55.7917 17.3021ZM51.9842 17.3021C51.9842 18.0464 51.9842 18.723 50.7747 19.2417L39.8 22.8502V15.5881H50.2596C51.2003 15.5881 51.9618 16.3549 51.9618 17.3021H51.9842Z" fill="white"/>
<path d="M61.0775 11.7766C60.0248 11.7766 59.1737 12.6336 59.1737 13.6936V32.1647C59.1737 33.2247 60.0248 34.0817 61.0775 34.0817C62.1302 34.0817 62.9813 33.2247 62.9813 32.1647V13.6936C62.9813 12.6336 62.1302 11.7766 61.0775 11.7766Z" fill="white"/>
<path d="M92.0754 11.7766C91.0227 11.7766 90.1716 12.6336 90.1716 13.6936V32.1647C90.1716 33.2247 91.0227 34.0817 92.0754 34.0817C93.128 34.0817 93.9791 33.2247 93.9791 32.1647V13.6936C93.9791 12.6336 93.128 11.7766 92.0754 11.7766Z" fill="white"/>
<path d="M117.272 32.1421V13.7613C117.272 12.8366 116.645 11.9796 115.749 11.8217C114.54 11.5736 113.487 12.5208 113.487 13.6936V30.2477H106.611C103.834 30.2477 101.572 27.9698 101.572 25.1732V13.7613C101.572 12.8366 100.945 11.9796 100.049 11.8217C99.1529 11.6638 97.7867 12.5208 97.7867 13.6936V25.9174C97.7867 30.4281 101.415 34.0591 105.872 34.0591H115.615C116.533 34.0591 117.295 33.2021 117.295 32.1421H117.272Z" fill="white"/>
<path d="M2.01576 15.4979H12.9904C14.0431 15.4979 14.8942 14.6409 14.8942 13.5808V2.50723C14.8942 1.44723 14.0431 0.59021 12.9904 0.59021C11.9378 0.59021 11.0867 1.44723 11.0867 2.50723V11.6864H2.01576C0.963086 11.6864 0.111988 12.5434 0.111988 13.6034C0.111988 14.6634 0.963086 15.5204 2.01576 15.5204V15.4979Z" fill="#7FC9C7"/>
<path d="M115.727 37.1264H114.137C112.323 37.1264 110.71 37.9608 109.612 39.2464C108.537 37.9608 106.902 37.1264 105.088 37.1264H98.9737C98.3018 37.1264 97.7643 37.7579 97.7643 38.5247V51.9213C97.7643 52.5979 98.2122 53.2068 98.8618 53.3421C99.7353 53.5225 100.519 52.846 100.519 51.9889V39.923H104.573C106.544 39.923 108.134 41.4791 108.224 43.4187V51.9889C108.224 52.4851 108.493 52.9136 108.873 53.1617C108.918 53.1843 108.985 53.2294 109.03 53.2519C109.075 53.2519 109.12 53.2745 109.142 53.297C109.187 53.297 109.232 53.3196 109.277 53.3421C109.277 53.3421 109.299 53.3421 109.321 53.3421C109.344 53.3421 109.388 53.3421 109.411 53.3421C109.478 53.3421 109.523 53.3421 109.59 53.3421C109.657 53.3421 109.702 53.3421 109.769 53.3421C109.792 53.3421 109.836 53.3421 109.859 53.3421C109.859 53.3421 109.881 53.3421 109.904 53.3421C109.948 53.3421 109.993 53.3196 110.038 53.297C110.083 53.297 110.128 53.2745 110.15 53.2519C110.195 53.2294 110.262 53.2068 110.307 53.1617C110.688 52.9136 110.956 52.4851 110.956 51.9889V43.4187C111.046 41.4566 112.658 39.923 114.607 39.923H115.122C117.138 39.923 118.795 41.5694 118.795 43.6217V51.9438C118.795 52.6204 119.243 53.2294 119.893 53.3647C120.766 53.5451 121.55 52.8685 121.55 52.0115V43.103C121.55 39.8328 118.907 37.1715 115.66 37.1715L115.727 37.1264Z" fill="#7FC9C7"/>
<path d="M124.887 43.1255V47.3881C124.887 50.6583 127.53 53.3196 130.778 53.3196H137.788C138.639 53.3196 139.311 52.5302 139.132 51.6506C138.998 50.9966 138.393 50.5455 137.721 50.5455H131.293C129.277 50.5455 127.62 48.8992 127.62 46.8468V43.6443C127.62 41.6145 129.255 39.9455 131.293 39.9455H137.721C138.393 39.9455 138.998 39.4945 139.132 38.8404C139.311 37.9609 138.639 37.1715 137.788 37.1715H130.778C127.53 37.1715 124.887 39.8328 124.887 43.103V43.1255Z" fill="#7FC9C7"/>
</g>
<defs>
<clipPath id="clip0_4588_785">
<rect width="141.775" height="53" fill="white" transform="translate(0 0.5)"/>
</clipPath>
</defs>
</svg>
