<svg xmlns="http://www.w3.org/2000/svg" viewBox="0 0 1200 760" role="img" aria-labelledby="t d"><title id="t">Hoofdthema voeding na maagverkleining</title><desc id="d">Illustratie met een bord, lepel, labelkaart en meal prep blokken.</desc><rect width="1200" height="760" rx="48" fill="#0f5f53"/><rect x="42" y="42" width="1116" height="676" rx="40" fill="#136f60" stroke="#8fd2c7" stroke-width="4"/><circle cx="308" cy="294" r="162" fill="#f7fbfa"/><circle cx="308" cy="294" r="122" fill="#dff4ee" stroke="#8fd2c7" stroke-width="8"/><path d="M240 242h136" stroke="#1a7c6b" stroke-width="18" stroke-linecap="round"/><path d="M234 292h148" stroke="#1a7c6b" stroke-width="18" stroke-linecap="round"/><path d="M258 344h98" stroke="#1a7c6b" stroke-width="18" stroke-linecap="round"/><rect x="520" y="162" width="232" height="174" rx="24" fill="#f7fbfa"/><text x="560" y="214" font-family="Nunito,Arial,sans-serif" font-size="32" font-weight="800" fill="#1a2b28">Voeding</text><text x="560" y="258" font-family="Inter,Arial,sans-serif" font-size="26" fill="#4a6b64">eiwitten</text><text x="560" y="292" font-family="Inter,Arial,sans-serif" font-size="26" fill="#4a6b64">vezels</text><text x="560" y="326" font-family="Inter,Arial,sans-serif" font-size="26" fill="#4a6b64">structuur</text><rect x="520" y="386" width="286" height="210" rx="28" fill="#f7fbfa"/><rect x="560" y="438" width="72" height="72" rx="16" fill="#dff4ee"/><rect x="648" y="438" width="72" height="72" rx="16" fill="#fff1da"/><rect x="560" y="526" width="160" height="18" rx="9" fill="#8fd2c7"/><rect x="834" y="186" width="246" height="410" rx="30" fill="#f7fbfa"/><text x="874" y="244" font-family="Nunito,Arial,sans-serif" font-size="30" font-weight="800" fill="#1a2b28">Meal prep</text><rect x="874" y="278" width="164" height="24" rx="12" fill="#cce9e2"/><rect x="874" y="332" width="164" height="24" rx="12" fill="#cce9e2"/><rect x="874" y="386" width="164" height="24" rx="12" fill="#cce9e2"/><rect x="874" y="470" width="120" height="72" rx="18" fill="#dff4ee"/><rect x="1008" y="470" width="72" height="72" rx="18" fill="#fff1da"/></svg>