<svg xmlns="http://www.w3.org/2000/svg" viewBox="0 0 1200 760" role="img" aria-labelledby="t d"><title id="t">Hoofdthema vitamines na maagverkleining</title><desc id="d">Illustratie met supplementdoosjes, tijdschema en controlemomenten.</desc><rect width="1200" height="760" rx="48" fill="#0d5462"/><rect x="42" y="42" width="1116" height="676" rx="40" fill="#166878" stroke="#97dce5" stroke-width="4"/><rect x="102" y="120" width="366" height="512" rx="36" fill="#f7fbfa"/><text x="148" y="188" font-family="Nunito,Arial,sans-serif" font-size="38" font-weight="800" fill="#1a2b28">Supplementen</text><rect x="148" y="228" width="270" height="84" rx="22" fill="#dff4ee"/><text x="182" y="280" font-family="Inter,Arial,sans-serif" font-size="28" fill="#1a7c6b">Bariatrische multi</text><rect x="148" y="336" width="270" height="84" rx="22" fill="#eef4ff"/><text x="182" y="388" font-family="Inter,Arial,sans-serif" font-size="28" fill="#285b87">B12 en D3</text><rect x="148" y="444" width="270" height="84" rx="22" fill="#fff1da"/><text x="182" y="496" font-family="Inter,Arial,sans-serif" font-size="28" fill="#7c5a17">Calcium en ijzer</text><rect x="528" y="120" width="570" height="228" rx="34" fill="#f7fbfa"/><text x="572" y="182" font-family="Nunito,Arial,sans-serif" font-size="38" font-weight="800" fill="#1a2b28">Routine</text><line x1="592" y1="256" x2="1034" y2="256" stroke="#97dce5" stroke-width="10" stroke-linecap="round"/><circle cx="654" cy="256" r="22" fill="#1a7c6b"/><circle cx="814" cy="256" r="22" fill="#1a7c6b"/><circle cx="974" cy="256" r="22" fill="#1a7c6b"/><text x="620" y="304" font-family="Inter,Arial,sans-serif" font-size="24" fill="#4a6b64">ochtend</text><text x="774" y="304" font-family="Inter,Arial,sans-serif" font-size="24" fill="#4a6b64">middag</text><text x="944" y="304" font-family="Inter,Arial,sans-serif" font-size="24" fill="#4a6b64">avond</text><rect x="528" y="392" width="570" height="240" rx="34" fill="#f7fbfa"/><text x="572" y="454" font-family="Nunito,Arial,sans-serif" font-size="38" font-weight="800" fill="#1a2b28">Controle</text><rect x="572" y="494" width="210" height="80" rx="22" fill="#dff4ee"/><rect x="820" y="494" width="210" height="80" rx="22" fill="#eef4ff"/><text x="610" y="544" font-family="Inter,Arial,sans-serif" font-size="28" fill="#1a7c6b">bloedwaarden</text><text x="874" y="544" font-family="Inter,Arial,sans-serif" font-size="28" fill="#285b87">timing</text></svg>