<svg xmlns="http://www.w3.org/2000/svg" viewBox="0 0 1200 760" role="img" aria-labelledby="t d"><title id="t">Hoofdthema herstel na maagverkleining</title><desc id="d">Illustratie met tijdlijn, signalen en herstelblokken.</desc><rect width="1200" height="760" rx="48" fill="#195d68"/><rect x="42" y="42" width="1116" height="676" rx="40" fill="#24707c" stroke="#9ad7dd" stroke-width="4"/><rect x="100" y="132" width="1000" height="160" rx="32" fill="#f7fbfa"/><text x="146" y="194" font-family="Nunito,Arial,sans-serif" font-size="38" font-weight="800" fill="#1a2b28">Herstel in fases</text><line x1="176" y1="246" x2="1022" y2="246" stroke="#9ad7dd" stroke-width="10" stroke-linecap="round"/><circle cx="252" cy="246" r="24" fill="#1a7c6b"/><circle cx="508" cy="246" r="24" fill="#1a7c6b"/><circle cx="764" cy="246" r="24" fill="#1a7c6b"/><circle cx="1008" cy="246" r="24" fill="#1a7c6b"/><text x="216" y="286" font-family="Inter,Arial,sans-serif" font-size="24" fill="#4a6b64">net na de operatie</text><text x="466" y="286" font-family="Inter,Arial,sans-serif" font-size="24" fill="#4a6b64">0-3 maanden</text><text x="720" y="286" font-family="Inter,Arial,sans-serif" font-size="24" fill="#4a6b64">3-12 maanden</text><text x="960" y="286" font-family="Inter,Arial,sans-serif" font-size="24" fill="#4a6b64">1 jaar plus</text><rect x="100" y="344" width="304" height="256" rx="28" fill="#f7fbfa"/><text x="140" y="406" font-family="Nunito,Arial,sans-serif" font-size="32" font-weight="800" fill="#1a2b28">Signalen</text><text x="140" y="454" font-family="Inter,Arial,sans-serif" font-size="26" fill="#4a6b64">kou</text><text x="140" y="492" font-family="Inter,Arial,sans-serif" font-size="26" fill="#4a6b64">haaruitval</text><text x="140" y="530" font-family="Inter,Arial,sans-serif" font-size="26" fill="#4a6b64">energie</text><rect x="448" y="344" width="304" height="256" rx="28" fill="#f7fbfa"/><text x="488" y="406" font-family="Nunito,Arial,sans-serif" font-size="32" font-weight="800" fill="#1a2b28">Herstel</text><text x="488" y="454" font-family="Inter,Arial,sans-serif" font-size="26" fill="#4a6b64">slaap</text><text x="488" y="492" font-family="Inter,Arial,sans-serif" font-size="26" fill="#4a6b64">bewegen</text><text x="488" y="530" font-family="Inter,Arial,sans-serif" font-size="26" fill="#4a6b64">routines</text><rect x="796" y="344" width="304" height="256" rx="28" fill="#f7fbfa"/><text x="836" y="406" font-family="Nunito,Arial,sans-serif" font-size="32" font-weight="800" fill="#1a2b28">Bijsturen</text><text x="836" y="454" font-family="Inter,Arial,sans-serif" font-size="26" fill="#4a6b64">bloedwaarden</text><text x="836" y="492" font-family="Inter,Arial,sans-serif" font-size="26" fill="#4a6b64">team inschakelen</text></svg>