<?xml version="1.0" encoding="UTF-8"?>
<svg xmlns="http://www.w3.org/2000/svg" version="1.1" viewBox="0 0 1042.2 464.8">
  <defs>
    <style>
      .cls-1 {
        fill: #c77ea6;
      }

      .cls-2 {
        fill: #1d1d1b;
      }

      .cls-3 {
        fill: #006fb9;
      }

      .cls-4 {
        fill: #00b1eb;
      }

      .cls-5 {
        fill: #83d0f5;
      }

      .cls-6 {
        fill: #12110c;
      }

      .cls-7 {
        fill: #e2c1d5;
      }

      .cls-8 {
        fill: #a71b71;
      }
    </style>
  </defs>
  <!-- Generator: Adobe Illustrator 28.7.1, SVG Export Plug-In . SVG Version: 1.2.0 Build 142)  -->
  <g>
    <g id="_x30_1-Vitalys-CMYK-FC">
      <g>
        <path class="cls-3" d="M241.2,287.5c-3.4,0-7.1-.7-10.3-1.3h-.5c0,0-36.7-152.7-36.7-152.7-.7-2.7-1-4.7-1-6.1,0-5.9,4.9-9.6,12.8-9.6s7.4.9,12,2.7h.4c0,.1,0,.5,0,.5,12.8,52.8,21.1,101,27.1,136.1l.2,1.4h.5c12.2-25,22-75.8,25.2-129.8.3-7.2,4.8-10.8,13.2-10.8s9,1.3,12.4,2.7l.5.2v.6c-6.7,79.8-21.5,135.5-43,161-2.8,3.4-7.2,5.2-13,5.2Z"/>
        <path class="cls-3" d="M346.7,286.2c-2.8,0-7.8-.7-11.2-1.3h-.6v-156.4c0-7.1,4.4-10.5,13.5-10.5s8.6,1.1,11.6,2l.5.2v155.9c0,4.7-2.4,10.2-13.8,10.2Z"/>
        <path class="cls-3" d="M447.3,287.8c-21.5,0-33.4-13.8-33.4-38.9v-104.3h-20.9l-.2-.4c-2-4-3-8.1-3-12.1,0-7.3,3.7-11.8,9.6-11.8h74.6l.2.5c1.4,3.8,1.7,8.3,1.7,11.4,0,7.9-3.6,12.5-9.9,12.5h-26.3v95.9c0,15.5,4.4,21.8,15.2,21.8s10.7-1.4,15.2-4.4l.6-.4.4.6c1.8,2.9,4,7.4,4,12.5s-.9,6.1-2.8,8.6c-3.9,5.3-13.8,8.8-25.1,8.8Z"/>
        <path class="cls-3" d="M549.3,287.8c-22.5,0-46.4-3.8-46.4-49.4s26.3-50,46.1-50,19.4,1.8,26.3,3.7v-24.5c0-21.1-12.7-24-26.3-24s-28.5,6-38.2,11l-.6.3-.4-.6c-2.7-4-4-8.1-4-12.2s1.1-6.9,3.1-9.6c4.6-6,21.7-15.6,47.9-15.6s44.2,14.1,44.2,40.9v118.3l-.4.2c-10.3,5.6-29.1,11.5-51.3,11.5ZM556.2,211.4c-15.7,0-28.6,2.1-28.6,27.6s12.7,26,25,26,19-3.1,22.8-4.6v-46.2c-5-1.2-14.1-2.8-19.2-2.8Z"/>
        <path class="cls-3" d="M655.1,287.2h-.2c-12.2-6.4-17.4-18.1-17.4-39.3V46.7c0-10.4,5.3-12.5,13.2-12.5s7.6.6,11.9,1.7h.6v206.2c0,13.3,1.2,20.4,8.3,27.2,1.9,1.9,2.5,3.4,2.5,6.1,0,6.4-6.3,10.4-18.6,11.8h-.2Z"/>
        <path class="cls-3" d="M695.6,348.8c-7.9,0-13.5-6.8-13.5-16.4s0-1.7.3-3.4v-.4c0,0,.4-.2.4-.2,22.2-10.6,37.5-25.3,46.9-44.8l-39.1-153.5c-.8-3.2-.3-6,1.4-8.1,2-2.6,5.7-4,10.4-4s8.5.6,12.9,2h.4c0,.1,0,.5,0,.5,12.2,52.6,21.4,98.4,28.3,139.8h2.4c8.9-30.8,18.2-84.2,23.3-133.1.7-6.7,4.4-9.2,13.5-9.2s8.3.9,12.3,2.3l.6.2v.6c-9.5,74-21.8,127.4-37.7,163.4-14.3,32.4-32.1,52.3-55.8,62.4-2.5,1.1-4.9,1.7-7.1,1.7Z"/>
        <path class="cls-3" d="M849,287.8c-17.6,0-32.1-5-36.9-12.8-1.5-2.3-1.7-5-1.7-7.6,0-4.3,1.6-9.4,4.4-13.5l.5-.7.6.6c4.9,4.2,15.4,11.2,31.2,11.2s24.7-8.5,24.7-21.8-2.3-13.5-9-21.7c-4.1-4.7-11.7-10.8-19.1-16.7-7.3-5.8-14.2-11.4-17.8-15.6-8.1-10-11.6-18.7-11.6-29.2,0-25.8,19.6-43.2,48.7-43.2s27.6,6.1,29.9,8h0c4.8,4,5.8,8,5.8,10.7,0,4.3-1.5,9-4.1,12.5l-.5.6-.6-.5c-7.8-6.3-15.8-9-26.9-9-15.9,0-23.1,10.3-23.1,20.5s2.2,12.3,8,18.8c3.5,4,9.8,8.9,16.4,14.1,7.4,5.8,15.1,11.9,19.8,17.2,9.2,10.2,12.9,19.4,12.9,31.8s-5,26.2-14.3,34.3c-9,7.8-21.9,11.9-37.3,11.9Z"/>
      </g>
      <g>
        <path class="cls-8" d="M22.4,46.9c1.7,0,3.2.2,4.5.4,3.2-6.8,4.6-12.9,5.6-21.7.2-1.7,1.2-2.1,2.5-2.1s1.7.2,2.5.4c-.9,9.7-3.4,17.4-6.7,24.4,1.3.6,2.4,1.4,3.3,2.4,3,3.5,4.3,9.5,4.3,15.6s-.6,2.4-2.4,2.4-2-.2-2.5-.3c0-5.8-.9-11.8-3.9-15.2-1.3-1.4-3.5-1.7-7.2-1.7v15.6c0,1.3-1.1,1.7-2.4,1.7s-1.7-.2-2.2-.3V25.4c0-1.5,1.1-1.9,2.3-1.9s1.6.2,2.3.4v23Z"/>
        <path class="cls-8" d="M51.1,60.3c0,2.5.2,4,1.6,5.4.3.3.4.6.4,1.1,0,1.5-1.8,2-3.5,2.2-2.5-1.3-3.3-3.7-3.3-7.6V23.8c0-1.8.8-2.3,2.4-2.3s1.5.1,2.3.3v38.5Z"/>
        <path class="cls-8" d="M64.4,23.8c2.2,0,2.8.9,2.8,3s-1.1,3.4-3.2,3.4-2.9-.8-2.9-3.1,1.1-3.3,3.2-3.3ZM66.3,67c0,1.3-1,1.9-2.5,1.9s-1.5-.1-2.2-.3v-30.5c0-1.5,1.1-1.9,2.5-1.9s1.6.2,2.2.4v30.5Z"/>
        <path class="cls-8" d="M75.6,38c2.3-1,6.6-2.1,10.6-2.1,6.6,0,8.7,2.4,8.7,9v22.1c0,1.3-.7,1.7-2.5,1.7s-1.5-.1-2.2-.3v-23.5c0-3.3-1.1-4.5-4.5-4.5s-4.1.4-5.4,1v25.7c0,1.3-.4,1.7-2.5,1.7s-1.5-.1-2.2-.3v-30.4Z"/>
        <path class="cls-8" d="M106.5,23.8c2.2,0,2.8.9,2.8,3s-1.1,3.4-3.2,3.4-2.9-.8-2.9-3.1,1.1-3.3,3.2-3.3ZM108.4,67c0,1.3-1,1.9-2.5,1.9s-1.5-.1-2.2-.3v-30.5c0-1.5,1.1-1.9,2.5-1.9s1.6.2,2.2.4v30.5Z"/>
        <path class="cls-8" d="M136.7,46.7c0,2.2-.2,5.4-.6,7.5-5.8,1.2-13.4,1.2-14.6,1.1.2,7.6,2.8,9.2,6.9,9.2s5.4-1,7.5-2.2c.4.7.6,1.5.6,2.4s-.1,1.4-.7,2c-1.1,1.1-4.2,2.6-8.2,2.6-6.2,0-10.7-2.7-10.7-15s6.2-18.2,11.4-18.2,8.4,3.7,8.4,10.8ZM121.6,51.5h.8c2,0,6.4,0,9.3-.6.3-1.3.3-2.8.3-3.8,0-4.1-1.5-6.6-4.2-6.6s-5.7,1.1-6.2,11Z"/>
        <path class="cls-8" d="M149.2,39.6c2.2-1.8,5-3.7,8.6-3.7s5.6,2.2,5.6,7.3-1.8,9.2-4.2,12.7c.9.9,2,2.4,2.7,3.5,1.7,3.1,2.6,6,2.6,7.5s-1.3,1.9-2.3,1.9-1.8-.1-2.3-.3c-.9-3.3-2-6.6-4.6-9.3-1.8.4-3.9.7-6.1.8v6.7c0,1.5-.4,2.1-2.4,2.1s-1.5,0-2.3-.3V24c0-1.8.7-2.4,2.5-2.4s1.6.1,2.2.4v17.7ZM149.2,55.5c2,0,4.6-.5,5.8-.9,2-2.2,3.6-6.1,3.6-9.7s-1-3.8-2.8-3.8-4.5,1.3-6.6,3.4v11.1Z"/>
        <path class="cls-8" d="M187.7,41h-4.1c-.4-.8-.6-1.5-.6-2.3,0-1.2.5-2.2,1.7-2.2h3v-5.6c0-1.9.7-3.5,3.2-3.5s1,0,1.5.1v9h6.7c.3.7.3,1.5.3,2.2,0,1.3-.5,2.3-1.8,2.3h-5.3v18.9c0,3.2.9,4.4,3.1,4.4s2.3-.4,3-.9c.4.7.8,1.5.8,2.4s-.1,1.1-.5,1.6c-.7,1-2.5,1.7-4.7,1.7-4.4,0-6.3-3.1-6.3-7.5v-20.6Z"/>
        <path class="cls-8" d="M225,46.7c0,2.2-.2,5.4-.6,7.5-5.8,1.2-13.4,1.2-14.6,1.1.2,7.6,2.8,9.2,6.9,9.2s5.4-1,7.5-2.2c.4.7.6,1.5.6,2.4s-.1,1.4-.7,2c-1.1,1.1-4.2,2.6-8.2,2.6-6.2,0-10.7-2.7-10.7-15s6.2-18.2,11.4-18.2,8.4,3.7,8.4,10.8ZM210,51.5h.8c2,0,6.4,0,9.3-.6.3-1.3.3-2.8.3-3.8,0-4.1-1.5-6.6-4.2-6.6s-5.7,1.1-6.2,11Z"/>
        <path class="cls-8" d="M253,38.4c-.1,16-2.2,21.2-10.8,21.2s-2.3-.1-3.4-.4c-.8.8-1.5,1.9-1.5,2.6s.3,1.1,1.3,1.5c3.3,1.4,9.2,1.2,12.8,3.1,1.4.8,2.5,2.1,2.5,4.8,0,4.8-3.5,10-13.1,10s-9-2.9-9-6.3,2.2-6,4.3-7.8c-1.7-.7-3.4-1.5-3.4-3.4s1.9-4.3,3.5-5.8c-2.7-2-3.5-5.5-3.5-9.5,0-8.4,4.7-12.5,10.8-12.5s6.6,1,9.6,2.5ZM239.8,68.1c-2,1.5-3.7,3.6-3.7,5.8s.9,3.3,5.3,3.3,7.7-2.4,7.7-4.9-.6-1.9-1.5-2.4c-2-1.2-4.7-1.4-7.8-1.9ZM237.4,48.3c0,3.6.6,7.1,5.1,7.1s5.8-4.8,5.9-14c-1-.6-3.3-1.2-5-1.2-3.5,0-5.9,2.8-5.9,8.1Z"/>
        <path class="cls-8" d="M280.1,46.7c0,2.2-.2,5.4-.6,7.5-5.8,1.2-13.4,1.2-14.6,1.1.2,7.6,2.8,9.2,6.9,9.2s5.4-1,7.5-2.2c.4.7.6,1.5.6,2.4s-.1,1.4-.7,2c-1.1,1.1-4.2,2.6-8.2,2.6-6.2,0-10.7-2.7-10.7-15s6.2-18.2,11.4-18.2,8.4,3.7,8.4,10.8ZM265,51.5h.8c2,0,6.4,0,9.3-.6.3-1.3.3-2.8.3-3.8,0-4.1-1.5-6.6-4.2-6.6s-5.7,1.1-6.2,11Z"/>
        <path class="cls-8" d="M287.9,38c2.3-1,6.6-2.1,10.6-2.1,6.6,0,8.7,2.4,8.7,9v22.1c0,1.3-.7,1.7-2.5,1.7s-1.5-.1-2.2-.3v-23.5c0-3.3-1.1-4.5-4.5-4.5s-4.1.4-5.4,1v25.7c0,1.3-.4,1.7-2.5,1.7s-1.5-.1-2.2-.3v-30.4Z"/>
        <path class="cls-8" d="M338.7,35.9c6.1,0,9.4,3.5,9.4,16.6s-3.7,16.6-10.7,16.6-9.7-3.1-9.7-16.3,4.2-17,11-17ZM337.7,64.8c3.7,0,5.8-3.6,5.8-12s-1.8-12.4-5.3-12.4-5.9,3-5.9,11.9,1.8,12.5,5.4,12.5Z"/>
        <path class="cls-8" d="M354.2,39c-.1-.5-.2-.9-.2-1.2,0-1,.8-1.7,2.3-1.7s1.5.2,2.3.5c2.5,10.6,4.2,20.4,5.3,27.1h.3c2.5-5.2,4.4-15.7,4.9-25.6,0-1.3.9-2,2.4-2s1.7.3,2.3.5c-1.2,14.7-3.9,26.2-8.3,31.5-.6.8-1.6,1-2.4,1s-1.3-.1-2-.3l-7.1-29.8Z"/>
        <path class="cls-8" d="M399.9,46.7c0,2.2-.2,5.4-.6,7.5-5.8,1.2-13.4,1.2-14.6,1.1.2,7.6,2.8,9.2,6.9,9.2s5.4-1,7.5-2.2c.4.7.6,1.5.6,2.4s-.1,1.4-.7,2c-1.1,1.1-4.2,2.6-8.2,2.6-6.2,0-10.7-2.7-10.7-15s6.2-18.2,11.4-18.2,8.4,3.7,8.4,10.8ZM384.9,51.5h.8c2,0,6.4,0,9.3-.6.3-1.3.3-2.8.3-3.8,0-4.1-1.5-6.6-4.2-6.6s-5.7,1.1-6.2,11Z"/>
        <path class="cls-8" d="M407.8,38.2c2.7-1.5,6.3-2.2,9.1-2.2s4.1.7,4.5,1.3c.3.3.4.9.4,1.4,0,1-.4,2.1-.9,2.9-.8-.4-1.7-.8-3.3-.8s-3.4.3-5.1,1.1v18.9l.8,5.8c.3,1.6-.8,2.4-2.8,2.4s-1.6-.2-2.2-.4l-.4-4v-26.2Z"/>
        <path class="cls-8" d="M447.4,38.4c-.1,16-2.2,21.2-10.8,21.2s-2.3-.1-3.4-.4c-.8.8-1.5,1.9-1.5,2.6s.3,1.1,1.3,1.5c3.3,1.4,9.2,1.2,12.8,3.1,1.4.8,2.5,2.1,2.5,4.8,0,4.8-3.5,10-13.1,10s-9-2.9-9-6.3,2.2-6,4.3-7.8c-1.7-.7-3.4-1.5-3.4-3.4s1.9-4.3,3.5-5.8c-2.7-2-3.5-5.5-3.5-9.5,0-8.4,4.7-12.5,10.8-12.5s6.6,1,9.6,2.5ZM434.3,68.1c-2,1.5-3.7,3.6-3.7,5.8s.9,3.3,5.3,3.3,7.7-2.4,7.7-4.9-.6-1.9-1.5-2.4c-2-1.2-4.7-1.4-7.8-1.9ZM431.8,48.3c0,3.6.6,7.1,5.1,7.1s5.8-4.8,5.9-14c-1-.6-3.3-1.2-5-1.2-3.5,0-5.9,2.8-5.9,8.1Z"/>
        <path class="cls-8" d="M474.5,46.7c0,2.2-.2,5.4-.6,7.5-5.8,1.2-13.4,1.2-14.6,1.1.2,7.6,2.8,9.2,6.9,9.2s5.4-1,7.5-2.2c.4.7.6,1.5.6,2.4s-.1,1.4-.7,2c-1.1,1.1-4.2,2.6-8.2,2.6-6.2,0-10.7-2.7-10.7-15s6.2-18.2,11.4-18.2,8.4,3.7,8.4,10.8ZM459.5,51.5h.8c2,0,6.4,0,9.3-.6.3-1.3.3-2.8.3-3.8,0-4.1-1.5-6.6-4.2-6.6s-5.7,1.1-6.2,11Z"/>
        <path class="cls-8" d="M481.6,40c-.2-.8-.3-1.7-.3-2.1,0-1,.8-1.7,2.3-1.7s1.6.2,2.4.5c2,10.4,3.4,19.1,4.7,26.4h.6c1.5-6.2,2.7-13.1,3.9-24.8.1-1.5,1-2,2.4-2s1.3.1,2,.4c1.8,8.1,3.3,17.1,4.9,26.4h.5c1.7-4.7,2.8-12.7,3.7-25.1.1-1.3.9-1.8,2.2-1.8s1.6.2,2.5.4c-1.5,16.6-3.6,26.4-7,31.3-.6.9-1.7,1.2-2.7,1.2s-1.3-.1-1.9-.3l-4.2-22.3h-.4c-1.5,11.3-2.9,16.6-4.9,21.2-.4,1-1.5,1.3-2.5,1.3s-1.3-.1-1.8-.3l-6.3-28.9Z"/>
        <path class="cls-8" d="M524.3,23.8c2.2,0,2.8.9,2.8,3s-1.1,3.4-3.2,3.4-2.9-.8-2.9-3.1,1.1-3.3,3.2-3.3ZM526.2,67c0,1.3-1,1.9-2.5,1.9s-1.5-.1-2.2-.3v-30.5c0-1.5,1.1-1.9,2.5-1.9s1.6.2,2.2.4v30.5Z"/>
        <path class="cls-8" d="M550.3,37.2c.5.4.8,1,.8,1.8s-.3,2.2-.8,3c-.9-.6-2.4-1.3-4.3-1.3-3.3,0-6.8,2-6.8,12.4s2.7,11.4,6.4,11.4,4-.8,5.1-1.5c.3.8.5,1.6.5,2.3s0,1.2-.3,1.6c-.7,1.2-3.5,2.2-6.6,2.2-5.3,0-9.7-2.8-9.7-15.7s5.9-17.5,10.9-17.5,3.9.6,4.7,1.3Z"/>
        <path class="cls-8" d="M561,68.8c-.4,0-1.5,0-2.2-.3V23.7c0-1.4.5-2.2,2.4-2.2s1.5.1,2.3.3v15.3c1.8-.6,4.2-1.2,6.9-1.2,5.5,0,7.7,2,7.7,7.9v23.2c0,1.3-.7,1.7-2.5,1.7s-1.5,0-2.2-.3v-23.5c0-3.3-1.1-4.5-4.5-4.5s-4.1.4-5.4,1v25.7c0,1.3-.4,1.7-2.5,1.7Z"/>
        <path class="cls-8" d="M588.9,41h-4.1c-.4-.8-.6-1.5-.6-2.3,0-1.2.5-2.2,1.7-2.2h3v-5.6c0-1.9.7-3.5,3.2-3.5s1,0,1.5.1v9h6.7c.3.7.3,1.5.3,2.2,0,1.3-.5,2.3-1.8,2.3h-5.3v18.9c0,3.2.9,4.4,3.1,4.4s2.3-.4,3-.9c.4.7.8,1.5.8,2.4s-.1,1.1-.5,1.6c-.7,1-2.5,1.7-4.7,1.7-4.4,0-6.3-3.1-6.3-7.5v-20.6Z"/>
      </g>
      <g>
        <path class="cls-6" d="M540.2,390.5c5.7,0,8.2,4.7,8.2,12.4s-1.7,13.4-9.6,13.4-8.3-4.9-8.3-12.8,2.2-13.1,9.6-13.1ZM539.6,412.8c1.4,0,2.6-.5,3.4-1.2,0-.2.8-3.2.8-8.1s-1-9.3-4.3-9.3-2.4.4-3.1.9c0,.2-1.3,2.8-1.3,8.3s1.2,9.4,4.5,9.4Z"/>
        <path class="cls-6" d="M552.2,395.8c.5-.2,1.2-.3,2-.3s1.7.3,2.1,2.4c1.2-1.3,3.2-2.4,5.4-2.4,3.7,0,4.9,2.2,4.9,5.7v14.8h-4.2v-14c0-2.2-.6-3.1-2.3-3.1s-2.9.9-3.8,1.7v15.3h-4.2v-20.2Z"/>
        <path class="cls-6" d="M576.8,395.5c2,0,3.4.7,4.2,1.2v-7.6c.6-.2,1.4-.3,2.2-.3,1.8,0,2,.4,2,2.6v24.8c-.5.1-1.2.2-1.9.2-1.1,0-1.7-.5-2.1-2.3-.2.3-2,2.3-4.8,2.3-4,0-6-4.2-6-10.2s2-10.7,6.4-10.7ZM577.8,413c1.4,0,2.5-.8,3.2-1.3v-11.6c-1.3-1-3.6-1.5-5.3-.8-.5,1.1-.9,3.5-.9,7,0,5.2,1.4,6.8,3,6.8Z"/>
        <path class="cls-6" d="M596.8,395.5c4.3,0,6.3,2.6,6.3,8.9s0,1.8-.1,2.8h-9.5c.1,3.8,1.3,6,4,6s3.4-.7,4-.7,1,.7,1,2.7c-1.3.7-3.2,1.3-6.1,1.3-5.4,0-7.4-4.8-7.4-10.6s2.3-10.3,7.7-10.3ZM596.6,398.7c-1.3,0-2.2.7-2.3.8,0,.2-.8,2.1-.8,5.1l5.7-.3c.2-3.8-.7-5.6-2.6-5.6Z"/>
        <path class="cls-6" d="M607,395.8c.2-.2,1.4-.3,2-.3,1.3,0,1.4.7,1.8,3.7,1.1-2.2,3.2-3.7,5.5-3.7.2.8.2,1.9.2,2.7,0,1.1-.3,1.6-.9,1.6-2,0-3.6,1-4.5,2.2v14h-4.2v-20.2Z"/>
        <path class="cls-6" d="M624.3,395.5c2,0,3.4.7,4.2,1.2v-7.6c.6-.2,1.4-.3,2.2-.3,1.8,0,2,.4,2,2.6v24.8c-.5.1-1.2.2-1.9.2-1.1,0-1.7-.5-2.1-2.3-.2.3-2,2.3-4.8,2.3-4,0-6-4.2-6-10.2s2-10.7,6.4-10.7ZM625.3,413c1.4,0,2.5-.8,3.2-1.3v-11.6c-1.3-1-3.6-1.5-5.3-.8-.5,1.1-.9,3.5-.9,7,0,5.2,1.4,6.8,3,6.8Z"/>
        <path class="cls-6" d="M644.3,395.5c4.3,0,6.3,2.6,6.3,8.9s0,1.8-.1,2.8h-9.5c.1,3.8,1.3,6,4,6s3.4-.7,4-.7,1,.7,1,2.7c-1.3.7-3.2,1.3-6.1,1.3-5.4,0-7.4-4.8-7.4-10.6s2.3-10.3,7.7-10.3ZM644,398.7c-1.3,0-2.2.7-2.3.8,0,.2-.8,2.1-.8,5.1l5.7-.3c.2-3.8-.7-5.6-2.6-5.6Z"/>
        <path class="cls-6" d="M661.2,395.5c4.3,0,6.3,2.6,6.3,8.9s0,1.8-.1,2.8h-9.5c.1,3.8,1.3,6,4,6s3.4-.7,4-.7,1,.7,1,2.7c-1.3.7-3.2,1.3-6.1,1.3-5.4,0-7.4-4.8-7.4-10.6s2.3-10.3,7.7-10.3ZM660.9,398.7c-1.3,0-2.2.7-2.3.8,0,.2-.8,2.1-.8,5.1l5.7-.3c.2-3.8-.7-5.6-2.6-5.6Z"/>
        <path class="cls-6" d="M671.4,411.8v-22.6c.6-.2,1.6-.4,2.2-.4,1.8,0,2,.4,2,2.6v19.9c0,1.4.6,1.9,1.6,1.9s1.2-.1,1.7-.3l.2,2.7c-.8.4-2,.8-3.4.8-2.5,0-4.2-1.3-4.2-4.6Z"/>
        <path class="cls-6" d="M687.2,396.1c.5-.2,1.4-.3,2.2-.3,2,0,2.4.3,2.8,2.6l2.8,14.8h.5l3.2-17.4h4.2l-4.8,20.2h-6.1l-4.8-19.9Z"/>
        <path class="cls-6" d="M716.2,416.4c-1.2,0-1.6-.5-1.9-2.2-1.2,1.2-2.9,2.2-5.2,2.2s-4.6-2.2-4.6-5.6,2.3-6.2,9.6-6.5c0-4.6-.3-5.5-2.9-5.5s-3.6.8-4.6.8-1.4-.6-1.4-2.7c1.3-.6,4-1.4,6.6-1.4,4.6,0,6.4,1.5,6.4,6.6v14c-.5.2-1.2.3-2,.3ZM710.5,413.1c1.4,0,2.6-.6,3.5-1.4v-4.9c-1.6.1-3.6.4-5.2.8-.3.7-.5,1.6-.5,2.5,0,1.8.6,2.9,2.1,2.9Z"/>
        <path class="cls-6" d="M723,395.8c.5-.2,1.2-.3,2-.3s1.7.3,2.1,2.4c1.2-1.3,3.2-2.4,5.4-2.4,3.7,0,4.9,2.2,4.9,5.7v14.8h-4.2v-14c0-2.2-.6-3.1-2.3-3.1s-2.9.9-3.8,1.7v15.3h-4.2v-20.2Z"/>
      </g>
      <g>
        <path class="cls-2" d="M1014,405.5c0,6.1,2.1,11.1,7.7,11.1s5-.6,6.3-1.4c0-2.1-.3-2.8-1.1-2.8s-1.9.8-4.2.8-4.1-2.3-4.2-6.2h9.9c0-1,.1-2,.1-2.9,0-6.6-2-9.3-6.6-9.3s-8.1,4.8-8.1,10.7h0ZM1024.5,403.9l-6,.3c0-3.1.8-5.1.9-5.3,0,0,1-.8,2.4-.8,2,0,3,1.8,2.7,5.8h0ZM1000.4,398.7h2.7v13.2c0,3.1,1.4,4.8,4.4,4.8s3.9-.7,4.3-.9l-.4-2.7c-.2,0-1.2.3-2,.3-1.4,0-2-.5-2-2.2v-12.4h4.3v-3.1h-4.3v-4.8c-3.2-.1-4.2.7-4.2,2.5v2.3h-2.8v3.1h0ZM997.1,416.3v-14.6c0-5.3-1.8-6.9-6.6-6.9s-5.6.8-6.9,1.5c0,2.2.6,2.8,1.5,2.8s3-.8,4.8-.8c2.7,0,3,.9,3,5.8-7.6.4-10,2.3-10,6.8s1.8,5.8,4.8,5.8,4.3-1,5.5-2.3c.3,1.8.7,2.3,2,2.3s1.5-.1,2-.3h0ZM987,410.2c0-.9.2-1.9.5-2.6,1.6-.5,3.8-.8,5.4-.9v5.1c-1,.8-2.3,1.5-3.7,1.5s-2.2-1.2-2.2-3h0ZM969.6,398.7h2.7v13.2c0,3.1,1.4,4.8,4.4,4.8s3.9-.7,4.3-.9l-.4-2.7c-.2,0-1.2.3-2,.3-1.4,0-2-.5-2-2.2v-12.4h4.3v-3.1h-4.3v-4.8c-3.2-.1-4.2.7-4.2,2.5v2.3h-2.8v3.1h0ZM954.9,401.4c0,2.6,1.5,4.6,5.1,6.2,2.2,1,3.5,1.6,3.5,3.1s-.2,1.5-.4,1.9c0,0-1,.6-2.8.6-2.5,0-3.5-.9-4.3-.9s-1,.8-1.2,2c0,.3,0,.7,0,1.1.3.2,2.3,1.3,5.2,1.3,4.4,0,7.6-2.5,7.6-6.8s-1.2-4.5-4.3-5.8c-3.1-1.4-4.2-2-4.2-3.5s0-1.2.4-1.7c0,0,1.3-.5,2.6-.5,1.8,0,2.8.6,3.5.6s1.2-.8,1.3-2.3c0-.3,0-.6,0-.9-.4-.1-2.1-1-4.4-1-4.9,0-7.5,2.8-7.5,6.6h0ZM935.8,416.2h4.3v-16c.9-.9,2.4-1.8,3.9-1.8s2.4.9,2.4,3.2v14.6h4.3v-15.5c0-3.7-1.3-6-5.1-6s-4.3,1.2-5.6,2.5c-.5-2.2-1-2.5-2.2-2.5s-1.6.2-2.1.3v21.1h0ZM925.9,389.7c0,1.3.5,2.3,2,2.3,2.3,0,3.1-.8,3.1-2.2s-.5-2.3-2-2.3c-2.3,0-3.1.8-3.1,2.2h0ZM930.6,397.3c0-1.7-.4-2.1-2-2.1s-1.8.2-2.4.4v23.5c-.5.3-1.4.5-2.3.5s-1.7,0-2.3-.2l-.3,3c.7.3,2,.5,3,.5,4.5,0,6.2-2.6,6.2-6v-19.6h0ZM921.1,416.2v-18.9c0-1.7-.4-2.1-2-2.1s-1.8.2-2.4.4v20.6h4.3ZM916.4,389.7c0,1.4.5,2.4,2,2.4,2.3,0,3.2-.9,3.2-2.3s-.6-2.3-2-2.3c-2.3,0-3.2.8-3.2,2.2h0ZM896.8,416.2h4.5v-10.3c.6,0,1.1,0,1.5,0s1,0,1.5-.1l3.1,8.6c.5,1.5,1.1,2,2.8,2s2.2-.3,2.8-.6l-4.9-11.2c2.2-.9,4.5-3.7,4.5-7.2s-2.2-7.4-7.8-7.4h-8.1v26.2h0ZM903.4,403c-1.2,0-2.1-.2-2.1-.2v-9.5c.5,0,1.6,0,2.3,0,3.3,0,4.4,1.3,4.4,4.7s-.6,3.5-1.4,4.4c-.7.5-2.1.7-3.1.7h0Z"/>
        <polygon class="cls-3" points="785 432.3 804.7 432.3 804.7 412.6 785 412.6 785 432.3 785 432.3"/>
        <path class="cls-4" d="M765.3,412.6v11.6s0,8.1,8.1,8.1h11.6v-19.7h-19.7Z"/>
        <path class="cls-5" d="M785,432.3v11.6s0,8.1,8.1,8.1h11.6v-19.7h-19.7Z"/>
        <polygon class="cls-8" points="843.7 432.3 824 432.3 824 412.6 843.7 412.6 843.7 432.3 843.7 432.3"/>
        <path class="cls-7" d="M863.5,412.6v11.6s0,8.1-8.1,8.1h-11.6v-19.7h19.7Z"/>
        <path class="cls-1" d="M843.7,432.3v11.6s0,8.1-8.1,8.1h-11.6v-19.7h19.7Z"/>
        <polygon class="cls-3" points="785 373.5 804.7 373.5 804.7 393.2 785 393.2 785 373.5 785 373.5"/>
        <path class="cls-4" d="M765.3,393.2v-11.6s0-8.1,8.1-8.1h11.6v19.7h-19.7Z"/>
        <path class="cls-5" d="M785,373.5v-11.6s0-8.1,8.1-8.1h11.6v19.7h-19.7Z"/>
        <polygon class="cls-3" points="843.7 373.5 824 373.5 824 393.2 843.7 393.2 843.7 373.5 843.7 373.5"/>
        <path class="cls-4" d="M863.5,393.2v-11.6s0-8.1-8.1-8.1h-11.6v19.7h19.7Z"/>
        <path class="cls-5" d="M843.7,373.5v-11.6s0-8.1-8.1-8.1h-11.6v19.7h19.7Z"/>
      </g>
    </g>
  </g>
</svg>