<svg width="785" height="233" viewBox="0 0 785 233" fill="none" xmlns="http://www.w3.org/2000/svg">
<g clip-path="url(#clip0_9273_1175)">
<path d="M208.452 56.811C191.672 53.072 174.446 51.7664 157.294 52.9385C144.535 53.6358 132.902 60.4905 126.137 71.3216C126.062 71.4551 125.973 71.5886 125.899 71.7222C122.917 76.7371 120.439 82.0191 118.51 87.5088C115.202 96.8561 104.905 122.138 74.1032 124.572C74.1032 124.572 94.5338 127.806 108.57 113.236C114.875 106.827 119.519 98.9778 122.116 90.3723C125.068 80.1496 133.54 63.3541 150.128 59.1997C164.861 55.5201 185.559 54.3035 208.452 56.7961" fill="#65699B"/>
<path d="M139.399 50.6979C139.399 50.6979 130.824 38.7986 116.15 43.1014C106.639 46.0391 99.5917 54.0659 97.9003 63.8732C97.5739 65.6982 97.381 67.538 97.3365 69.3926C97.3365 69.3926 105.17 34.0508 139.399 50.6979Z" fill="#65699B"/>
<path d="M88.7319 57.3303C88.7319 57.3303 91.907 46.7515 77.1145 28.8728C76.1946 27.7749 75.2302 26.7066 74.2509 25.6532C72.0551 23.309 65.2003 14.8815 64.2953 0C60.9421 4.76268 59.7848 10.7123 61.1053 16.3801C62.2626 21.484 65.1707 26.0241 69.3399 29.2141C74.5477 33.2349 84.9039 42.7455 88.7319 57.3303Z" fill="#65699B"/>
<path d="M84.5793 86.6628C84.5793 86.6628 103.615 83.9921 88.1105 62.6565C87.7247 62.1223 87.3538 61.5734 86.9829 61.0244C84.5941 57.4042 72.7245 40.5196 50.1722 25.8755C42.9169 21.187 34.9643 17.7003 26.5962 15.5489C17.5011 13.2195 4.10329 8.76839 0.0527809 2.13624C0.0527809 2.13624 -2.27663 13.264 24.0146 20.7864C25.3351 21.1721 26.6704 21.4837 28.0057 21.7508C34.4598 23.0268 64.1784 30.9497 86.8049 71.707C88.6743 75.0009 89.0304 78.9623 87.7693 82.5381C87.1016 84.185 85.9888 85.6093 84.5645 86.6628" fill="#65699B"/>
<path d="M53.1232 47.6564C53.1232 47.6564 48.5385 41.6474 35.66 38.1162C28.6124 36.2023 21.9951 32.9381 16.179 28.5167C13.3006 26.4247 10.6448 24.0359 8.27085 21.3801C8.27085 21.3801 5.94144 30.8164 26.8171 38.9619C29.6362 40.0599 32.5294 40.9946 35.4671 41.7661C41.4909 43.2944 47.3812 45.2677 53.1232 47.6416" fill="#65699B"/>
<path d="M64.2953 61.0544C64.2953 61.0544 59.4881 52.1225 44.1169 50.4162C38.8795 49.8673 33.7607 48.3984 29.0277 46.0987C24.9772 44.0957 20.8673 41.3953 18.8495 38.0125C18.8495 38.0125 18.8495 50.3717 40.0367 54.0365C41.1198 54.2293 42.2029 54.348 43.286 54.4371C46.7134 54.7041 57.1438 55.9208 64.2804 61.0692" fill="#65699B"/>
<path d="M64.1181 69.2443C64.1181 69.2443 63.0498 62.5973 51.3286 62.1225C48.0496 62.0187 44.8151 61.4252 41.7142 60.3718C38.7913 59.4519 36.0909 57.9682 33.7467 56.0097C33.7467 56.0097 33.8802 61.4103 42.7083 64.7932C45.646 65.8911 48.7618 66.3808 51.8924 66.2175C55.1565 66.0692 60.5424 66.3362 64.1329 69.2295" fill="#65699B"/>
<path d="M58.6735 120.833C58.6735 120.833 31.4179 155.581 61.8041 178.074C61.8041 178.074 43.8662 154.424 58.6735 120.833Z" fill="#65699B"/>
<path d="M60.7046 134.468C60.7046 134.468 48.657 162.198 71.9511 161.708C71.9511 161.708 56.0607 155.239 60.7046 134.468Z" fill="#65699B"/>
<path d="M74.5779 88.3243C67.3522 94.4668 60.9871 101.559 55.631 109.378C50.3935 116.989 46.4469 125.417 43.9394 134.304C42.7673 138.711 42.0254 143.221 41.7584 147.776C41.4468 152.405 41.4171 157.049 41.6693 161.678C42.2628 171.13 43.4646 180.522 45.2896 189.809C41.0907 181.07 38.2568 171.738 36.9215 162.138C35.3191 152.361 35.7642 142.361 38.2271 132.761C40.9572 123.221 45.6457 114.348 51.9959 106.707C58.1533 99.0811 65.8537 92.8199 74.5779 88.3243Z" fill="#65699B"/>
<path d="M127.873 54.3923C127.324 53.4279 126.523 52.6267 125.544 52.1074C124.149 51.3211 122.458 51.2914 121.048 52.0184C120.396 52.3448 119.802 52.7603 119.253 53.2499C118.719 53.7098 118.244 54.244 117.858 54.8374C117.057 56.0096 116.82 57.4636 117.191 58.8286C117.206 58.888 117.265 58.9176 117.339 58.9028C117.384 58.888 117.413 58.8434 117.413 58.7989C117.443 57.5823 117.948 56.425 118.823 55.609C119.654 54.8226 120.663 54.244 121.761 53.9027C122.295 53.8137 122.844 53.784 123.393 53.8137C122.666 54.3923 122.25 55.2529 122.235 56.1728C122.235 57.8939 123.66 59.2737 125.366 59.2589C127.057 59.2589 128.437 57.879 128.452 56.1876C128.452 55.5496 128.244 54.9116 127.859 54.3923" fill="#65699B"/>
<path fill-rule="evenodd" clip-rule="evenodd" d="M363.377 108.725C366.937 108.725 370.396 109.302 373.793 110.444C377.175 111.602 380.128 113.427 382.635 115.934L383.776 117.091L386.805 110.088H393.181V156.738C393.181 160.995 392.41 164.791 390.883 168.144C389.34 171.497 387.28 174.334 384.669 176.678C382.058 179.007 378.97 180.784 375.41 182.016C371.85 183.232 368.05 183.843 364.015 183.844C360.603 183.844 357.217 183.367 353.864 182.432C350.526 181.497 347.454 180.015 344.665 177.997L350.008 171.827L349.965 171.778C351.983 173.38 354.221 174.493 356.655 175.131C359.087 175.754 361.534 176.083 363.966 176.083C368.981 176.083 373.123 174.834 376.373 172.357C379.621 169.879 381.789 166.127 382.917 161.113L383.744 156.511L379.461 159.242C376.879 160.844 374.326 162.033 371.819 162.79C369.312 163.561 366.475 163.947 363.345 163.947C359.369 163.947 355.747 163.277 352.469 161.957C349.191 160.637 346.373 158.768 344 156.365C341.626 153.961 339.801 151.081 338.51 147.728C337.22 144.375 336.58 140.711 336.58 136.75C336.58 132.788 337.201 128.87 338.462 125.457C339.723 122.045 341.505 119.093 343.805 116.615C346.104 114.138 348.909 112.212 352.231 110.818C355.539 109.423 359.252 108.725 363.377 108.725ZM364.313 116.426C361.183 116.426 358.48 116.941 356.254 117.994C354.015 119.047 352.189 120.488 350.765 122.342C349.341 124.182 348.287 126.335 347.634 128.783C346.966 131.216 346.639 133.871 346.639 136.733C346.639 139.596 347.01 142.105 347.737 144.478C348.464 146.852 349.561 148.903 351.03 150.654C352.499 152.404 354.339 153.752 356.579 154.732C358.804 155.711 361.386 156.202 364.323 156.203L365.4 156.181C367.939 156.074 370.183 155.589 372.144 154.732C374.383 153.753 376.237 152.404 377.736 150.654C379.234 148.918 380.347 146.852 381.089 144.478C381.815 142.104 382.186 139.522 382.186 136.733C382.186 133.945 381.845 131.231 381.148 128.783C380.451 126.35 379.387 124.197 377.963 122.342C376.538 120.488 374.679 119.048 372.409 117.994C370.14 116.957 367.441 116.426 364.313 116.426Z" fill="#464B60"/>
<path d="M472.994 110.06H485.438V116.437H472.994V145.516C472.994 147.816 473.316 149.646 473.984 151.011C474.651 152.375 475.544 153.411 476.656 154.153C477.768 154.88 479.093 155.385 480.636 155.667C482.163 155.949 483.778 156.127 485.438 156.186V163.931C482.087 163.857 479.046 163.529 476.288 162.936C473.529 162.342 471.168 161.336 469.225 159.913C467.266 158.488 465.754 156.571 464.671 154.212C463.588 151.838 463.054 148.81 463.054 145.116V116.453H454.06V110.06H463.054V89.9693H472.994V110.06Z" fill="#464B60"/>
<path fill-rule="evenodd" clip-rule="evenodd" d="M620.279 108.708C624.33 108.708 628.071 109.348 631.528 110.639C634.984 111.93 637.966 113.755 640.473 116.128C642.98 118.502 644.955 121.378 646.379 124.76C647.803 128.143 648.515 131.899 648.515 136.009C648.515 140.118 647.831 144.109 646.481 147.566C645.116 151.023 643.186 153.945 640.678 156.349C638.156 158.752 635.19 160.626 631.733 161.946C628.277 163.266 624.463 163.931 620.279 163.931C616.095 163.931 612.267 163.266 608.765 161.946C605.279 160.626 602.284 158.752 599.777 156.349C597.269 153.945 595.309 151.008 593.914 147.566C592.52 144.109 591.822 140.267 591.822 136.009L591.87 134.457C592.03 130.884 592.748 127.616 594.033 124.657C595.502 121.275 597.506 118.414 600.042 116.085C602.593 113.741 605.589 111.93 609.03 110.639C612.487 109.348 616.229 108.708 620.279 108.708ZM620.279 116.437C617.416 116.437 614.967 116.942 612.697 117.951C610.427 118.96 608.496 120.343 606.894 122.094C605.293 123.844 604.059 125.891 603.184 128.264C602.309 130.638 601.881 133.176 601.881 135.906C601.881 138.635 602.281 141.319 603.081 143.796C603.882 146.274 605.058 148.411 606.586 150.221C608.114 152.031 610.041 153.486 612.34 154.569C614.64 155.652 617.298 156.186 620.295 156.186L621.409 156.176C624.007 156.059 626.291 155.533 628.278 154.586C630.547 153.503 632.431 152.033 633.929 150.194C635.428 148.34 636.569 146.201 637.325 143.753C638.097 141.32 638.466 138.71 638.467 135.906C638.467 133.102 638.053 130.638 637.223 128.264C636.377 125.89 635.188 123.844 633.615 122.094C632.043 120.343 630.146 118.975 627.921 117.951C625.695 116.942 623.143 116.437 620.279 116.437Z" fill="#464B60"/>
<path d="M762.653 108.692C766.274 108.692 769.823 109.141 773.28 110.06C776.736 110.965 779.925 112.536 782.847 114.76L777.715 120.828C775.549 119.226 773.146 118.085 770.506 117.432C767.85 116.764 765.235 116.437 762.653 116.437C761.675 116.437 760.634 116.529 759.522 116.707C758.411 116.885 757.359 117.242 756.396 117.805C755.283 118.295 754.349 118.978 753.622 119.838C752.895 120.714 752.524 121.884 752.524 123.337C752.524 124.168 752.717 124.91 753.103 125.533C753.488 126.156 753.932 126.705 754.465 127.15C754.985 127.61 755.548 127.996 756.142 128.307C756.735 128.619 757.27 128.884 757.759 129.092C758.946 129.581 760.15 129.967 761.366 130.249C762.582 130.531 763.83 130.815 765.076 131.082L767.894 131.601C770.193 132.091 772.361 132.702 774.378 133.429C776.395 134.156 778.145 135.163 779.613 136.409C781.082 137.67 782.242 139.211 783.118 141.065C783.993 142.92 784.421 145.164 784.421 147.82C784.421 150.475 783.857 152.909 782.744 154.926C781.632 156.943 780.119 158.619 778.25 159.94C776.366 161.26 774.228 162.257 771.809 162.925C769.406 163.592 766.911 163.915 764.33 163.915C760.636 163.914 756.942 163.471 753.249 162.552C749.554 161.647 746.203 160.072 743.206 157.847L748.322 151.779L748.338 151.811C750.563 153.413 753.13 154.555 756.023 155.207C758.915 155.875 761.689 156.202 764.33 156.203C765.383 156.203 766.515 156.082 767.732 155.829C768.947 155.592 770.046 155.207 771.025 154.688C772.004 154.169 772.818 153.455 773.486 152.536C774.153 151.631 774.481 150.548 774.481 149.302C774.481 147.552 773.917 146.232 772.804 145.327C771.692 144.422 770.324 143.695 768.721 143.131C767.193 142.568 765.459 142.119 763.546 141.763C761.632 141.422 759.658 140.964 757.64 140.4C755.682 139.911 753.784 139.318 751.945 138.621C750.091 137.924 748.472 137.003 747.078 135.846C745.684 134.704 744.57 133.235 743.725 131.455C742.894 129.675 742.465 127.492 742.465 124.911C742.465 122.122 743.029 119.72 744.141 117.702C745.254 115.684 746.751 114.003 748.635 112.667C750.519 111.347 752.673 110.355 755.12 109.687C757.567 109.02 760.073 108.692 762.653 108.692Z" fill="#464B60"/>
<path d="M287.604 108.589C291.654 108.589 295.349 109.302 298.479 110.726C301.625 112.165 304.269 114.124 306.435 116.631C308.6 119.138 310.219 122.12 311.302 125.576C312.385 129.033 312.919 132.746 312.919 136.723V139.854H282.158V133.369H303.185L303.082 132.212C302.948 129.987 302.5 127.892 301.773 125.933C301.046 123.991 300.04 122.284 298.75 120.86C297.459 119.436 295.884 118.325 294.045 117.524C292.19 116.722 290.052 116.318 287.604 116.318C284.533 116.318 281.909 116.886 279.713 117.983C277.517 119.111 275.721 120.58 274.327 122.434C272.933 124.274 271.92 126.423 271.282 128.87C270.659 131.303 270.352 133.888 270.352 136.604C270.352 139.318 270.674 141.589 271.342 143.829C272.009 146.069 273.006 148.028 274.327 149.734C275.647 151.44 277.323 152.832 279.34 153.915C281.358 154.998 283.703 155.653 286.344 155.846V163.828C282.575 163.62 279.103 162.821 275.928 161.427C272.752 160.032 270.008 158.144 267.664 155.77C265.32 153.396 263.509 150.593 262.218 147.344C260.927 144.11 260.293 140.516 260.293 136.614C260.293 132.713 260.957 128.842 262.277 125.43C263.598 122.019 265.467 119.052 267.869 116.545C270.273 114.038 273.153 112.077 276.506 110.682C279.859 109.288 283.554 108.59 287.604 108.589Z" fill="#464B60"/>
<path d="M411.79 118.027L413.673 116.35C416.536 113.694 419.373 111.764 422.207 110.547C425.025 109.331 428.44 108.725 432.401 108.725C436.362 108.725 439.745 109.437 442.281 110.861C444.833 112.285 446.823 114.241 448.247 116.718C449.671 119.195 450.648 122.061 451.167 125.295C451.686 128.529 451.957 132.002 451.957 135.711V162.595H442.016V137.49C442.016 135.191 441.924 132.802 441.746 130.325C441.568 127.848 441.081 125.579 440.28 123.532C439.479 121.47 438.232 119.774 436.571 118.454C434.894 117.134 432.519 116.469 429.448 116.469C425.962 116.469 422.846 117.491 420.087 119.552C417.327 121.614 415.188 124.138 413.645 127.134C413.289 127.698 412.962 128.324 412.65 129.021C412.339 129.717 412.074 130.384 411.866 131.006C411.866 131.154 411.851 131.276 411.807 131.379C411.777 131.483 411.747 131.603 411.747 131.736C411.673 132.3 411.644 133.042 411.644 133.991V136.766C411.644 137.952 411.658 139.093 411.688 140.205C411.717 141.318 411.747 142.137 411.747 142.612V162.595H401.704L401.748 162.584V89.9855H411.79V118.027Z" fill="#464B60"/>
<path d="M189.057 145.105L205.898 89.9855H215.2L232.262 145.105L249.001 89.9855H260.498L238.228 162.584H228.807L210.603 103.16L192.296 162.584H182.989L160.599 89.9855H172.113L189.057 145.105Z" fill="#464B60"/>
<path d="M520.959 145.105L537.8 89.9855H547.102L564.164 145.105L580.903 89.9855H592.4L570.13 162.584H560.709L542.505 103.16L524.209 162.584H514.891L492.507 89.9855H504.015L520.959 145.105Z" fill="#464B60"/>
<path d="M683.678 119.379C680.474 119.453 677.431 120.032 674.582 121.115C671.72 122.198 669.316 124.302 667.373 127.431C667.225 127.58 667.047 127.82 666.794 128.161C666.543 128.502 666.32 128.856 666.113 129.211C665.905 129.626 665.727 130.046 665.594 130.476C665.52 130.684 665.457 130.891 665.383 131.098C665.309 131.305 665.28 131.484 665.28 131.617C665.147 133.427 665.103 135.267 665.177 137.106C665.237 138.946 665.28 140.786 665.28 142.596V162.584H655.237V110.071H661.808L665.161 118.751L666.216 117.491C671.023 112.121 676.854 109.198 683.678 108.708V119.379Z" fill="#464B60"/>
<path d="M701.158 132.553L722.179 110.071H735.991L714.126 131.514L739.333 162.584H725.948L706.809 138.929L701.158 144.272V162.584H691.115V89.9855H701.158V132.553Z" fill="#464B60"/>
<path d="M330.723 162.579H320.68V110.071H330.723V162.579Z" fill="#464B60"/>
<path d="M325.812 88.6064C327.489 88.6065 328.929 89.2423 330.16 90.548C331.376 91.8384 331.983 93.3516 331.983 95.1016C331.983 96.8524 331.377 98.3834 330.16 99.7039C328.944 101.024 327.488 101.689 325.812 101.689C324.003 101.689 322.505 101.053 321.318 99.7634C320.131 98.4726 319.539 96.9117 319.539 95.1016C319.539 93.292 320.131 91.8385 321.318 90.548C322.505 89.2575 324.002 88.6064 325.812 88.6064Z" fill="#464B60"/>
<path d="M207.233 217.821C208.242 218.607 209.34 219.186 210.526 219.586C211.713 219.972 212.93 220.18 214.176 220.18C214.622 220.18 215.141 220.135 215.734 220.031C216.328 219.927 216.892 219.764 217.426 219.512C217.945 219.275 218.405 218.918 218.776 218.473C219.162 218.028 219.34 217.464 219.34 216.782C219.34 216.248 219.265 215.788 219.102 215.417C218.939 215.061 218.717 214.734 218.435 214.467C218.153 214.2 217.841 213.963 217.485 213.77C217.129 213.577 216.758 213.399 216.357 213.251C215.259 212.776 214.162 212.405 213.078 212.108C211.981 211.812 210.912 211.426 209.829 210.936C208.286 210.224 207.055 209.334 206.135 208.266C205.215 207.182 204.755 205.788 204.755 204.037C204.755 202.865 205.007 201.841 205.526 200.951C206.046 200.075 206.728 199.334 207.559 198.725C208.405 198.132 209.354 197.687 210.408 197.39C211.461 197.093 212.529 196.945 213.598 196.945C215.259 196.945 216.892 197.167 218.464 197.642C220.037 198.102 221.476 198.859 222.782 199.927L220.363 202.464C219.429 201.678 218.375 201.084 217.203 200.684C216.031 200.283 214.829 200.075 213.598 200.075C213.138 200.075 212.619 200.12 212.04 200.224C211.461 200.328 210.912 200.491 210.408 200.743C209.888 200.981 209.458 201.337 209.102 201.767C208.746 202.212 208.568 202.791 208.568 203.503C208.568 204.141 208.731 204.69 209.043 205.15C209.369 205.625 209.755 206.01 210.245 206.352C210.719 206.678 211.239 206.96 211.817 207.197C212.396 207.435 212.93 207.628 213.449 207.806C213.865 207.924 214.295 208.058 214.755 208.206C215.2 208.355 215.66 208.518 216.135 208.681C217.04 208.978 217.915 209.319 218.761 209.705C219.607 210.09 220.363 210.595 221.001 211.174C221.654 211.767 222.174 212.464 222.559 213.28C222.945 214.096 223.153 215.091 223.153 216.233C223.153 217.375 222.886 218.473 222.366 219.378C221.847 220.269 221.15 221.011 220.304 221.589C219.458 222.168 218.494 222.598 217.426 222.88C216.343 223.162 215.26 223.31 214.162 223.31C212.47 223.31 210.823 223.088 209.221 222.628C207.618 222.168 206.15 221.411 204.829 220.328L207.218 217.835L207.233 217.821Z" fill="#464B60"/>
<path d="M226.105 204.453H228.375L229.176 207.242L229.622 206.767C230.631 205.788 231.714 205.076 232.886 204.631C234.058 204.186 235.349 203.978 236.743 203.978C238.138 203.978 239.429 204.2 240.601 204.675C241.773 205.135 242.782 205.803 243.628 206.634C244.473 207.479 245.126 208.488 245.586 209.66C246.061 210.833 246.284 212.138 246.284 213.548C246.284 214.957 246.061 216.352 245.601 217.554C245.141 218.755 244.503 219.779 243.687 220.64C242.871 221.5 241.862 222.168 240.69 222.643C239.518 223.118 238.197 223.355 236.729 223.355C236.061 223.355 235.453 223.31 234.889 223.221C234.325 223.132 233.791 222.999 233.272 222.821C232.752 222.643 232.248 222.405 231.743 222.138C231.239 221.871 230.72 221.53 230.185 221.144L229.592 220.699V229.913H226.061V204.423L226.105 204.453ZM236.432 220.655C237.53 220.655 238.479 220.477 239.281 220.121C240.082 219.764 240.735 219.275 241.269 218.637C241.788 217.999 242.174 217.242 242.426 216.382C242.663 215.506 242.797 214.557 242.797 213.533C242.797 212.509 242.663 211.604 242.396 210.773C242.129 209.942 241.729 209.215 241.209 208.607C240.69 207.999 240.022 207.524 239.221 207.197C238.42 206.856 237.5 206.708 236.447 206.708C235.393 206.708 234.458 206.871 233.657 207.197C232.856 207.524 232.174 207.999 231.625 208.592C231.076 209.186 230.66 209.913 230.378 210.758C230.096 211.604 229.948 212.524 229.948 213.533C229.948 214.542 230.082 215.506 230.349 216.382C230.616 217.242 231.016 217.999 231.565 218.637C232.114 219.275 232.782 219.764 233.583 220.121C234.384 220.477 235.349 220.655 236.447 220.655" fill="#464B60"/>
<path d="M252.145 215.402C252.486 217.094 253.183 218.385 254.237 219.29C255.29 220.195 256.685 220.655 258.421 220.655C259.281 220.655 260.142 220.551 261.017 220.328C261.878 220.106 262.679 219.72 263.391 219.156L265.305 221.278C264.326 222.034 263.243 222.583 262.071 222.895C260.899 223.207 259.682 223.37 258.436 223.37C257.041 223.37 255.735 223.147 254.534 222.687C253.317 222.227 252.278 221.589 251.388 220.758C250.513 219.928 249.815 218.919 249.311 217.747C248.806 216.574 248.554 215.254 248.554 213.815C248.554 212.376 248.792 211.085 249.252 209.883C249.711 208.681 250.379 207.643 251.225 206.767C252.071 205.892 253.079 205.194 254.252 204.705C255.424 204.215 256.729 203.978 258.139 203.978C259.548 203.978 260.854 204.23 261.952 204.734C263.05 205.239 263.985 205.936 264.741 206.812C265.498 207.702 266.077 208.74 266.448 209.957C266.819 211.174 267.011 212.479 267.011 213.874V214.972H252.071L252.145 215.402ZM263.599 212.687L263.569 212.287C263.495 211.5 263.332 210.773 263.094 210.091C262.857 209.408 262.501 208.815 262.056 208.31C261.596 207.806 261.047 207.42 260.409 207.123C259.756 206.841 259.014 206.708 258.154 206.708C256.507 206.708 255.186 207.183 254.177 208.117C253.154 209.052 252.516 210.328 252.249 211.916C252.249 211.99 252.249 212.064 252.234 212.108C252.234 212.168 252.219 212.227 252.219 212.272L252.189 212.672H263.643L263.599 212.687Z" fill="#464B60"/>
<path d="M286.375 221.278C285.396 222.034 284.313 222.583 283.141 222.895C281.969 223.221 280.767 223.37 279.535 223.37C278.111 223.37 276.776 223.147 275.529 222.717C274.283 222.272 273.185 221.649 272.265 220.818C271.33 220.002 270.603 218.993 270.054 217.821C269.52 216.649 269.253 215.313 269.253 213.815C269.253 212.316 269.505 210.922 270.025 209.705C270.544 208.488 271.256 207.45 272.176 206.604C273.096 205.758 274.179 205.105 275.425 204.66C276.672 204.215 278.052 203.978 279.535 203.978C280.767 203.978 281.954 204.141 283.141 204.453C284.313 204.779 285.396 205.313 286.375 206.07L284.432 208.236C283.749 207.672 282.978 207.272 282.117 207.034C281.256 206.797 280.411 206.693 279.58 206.693C277.325 206.693 275.633 207.346 274.491 208.637C273.348 209.927 272.784 211.663 272.784 213.815C272.784 215.966 273.393 217.613 274.609 218.83C275.811 220.046 277.473 220.64 279.58 220.64C280.44 220.64 281.286 220.536 282.132 220.313C282.978 220.091 283.749 219.705 284.461 219.126L286.375 221.263V221.278Z" fill="#464B60"/>
<path d="M291.079 201.515C290.441 201.515 289.907 201.292 289.492 200.832C289.076 200.372 288.869 199.838 288.869 199.2C288.869 198.562 289.076 198.057 289.492 197.598C289.907 197.152 290.441 196.915 291.079 196.915C291.658 196.915 292.177 197.138 292.607 197.598C293.038 198.057 293.245 198.577 293.245 199.2C293.245 199.823 293.038 200.357 292.607 200.817C292.177 201.292 291.673 201.515 291.079 201.515ZM289.269 204.452H292.8V222.88H289.269V204.452Z" fill="#464B60"/>
<path d="M312.663 220.803C311.728 221.708 310.675 222.361 309.488 222.776C308.301 223.177 307.055 223.37 305.764 223.37C304.369 223.37 303.078 223.147 301.906 222.672C300.734 222.212 299.725 221.559 298.88 220.729C298.034 219.898 297.381 218.904 296.891 217.717C296.417 216.545 296.179 215.239 296.179 213.829C296.179 212.42 296.402 211.025 296.862 209.823C297.322 208.622 297.96 207.583 298.791 206.722C299.621 205.862 300.63 205.179 301.802 204.705C302.975 204.23 304.295 203.992 305.764 203.992C307.055 203.992 308.301 204.185 309.488 204.601C310.675 205.001 311.728 205.654 312.663 206.559L313.034 206.96L314.102 204.467H316.372V222.91H314.102L313.034 220.417L312.663 220.818V220.803ZM306.061 220.654C307.114 220.654 308.049 220.491 308.85 220.165C309.651 219.824 310.334 219.364 310.883 218.77C311.432 218.177 311.847 217.45 312.129 216.619C312.411 215.788 312.559 214.853 312.559 213.829C312.559 212.806 312.426 211.856 312.159 210.981C311.892 210.105 311.491 209.349 310.957 208.725C310.438 208.087 309.755 207.598 308.939 207.242C308.123 206.886 307.159 206.708 306.061 206.708C304.963 206.708 303.998 206.886 303.197 207.242C302.381 207.598 301.728 208.087 301.209 208.725C300.69 209.363 300.319 210.12 300.067 210.981C299.814 211.841 299.696 212.791 299.696 213.829C299.696 214.868 299.844 215.714 300.111 216.559C300.393 217.405 300.794 218.132 301.328 218.726C301.862 219.319 302.515 219.794 303.316 220.135C304.117 220.476 305.022 220.654 306.061 220.654Z" fill="#464B60"/>
<path d="M323.645 197.405H320.113V222.895H323.645V197.405Z" fill="#464B60"/>
<path d="M329.552 201.515C328.914 201.515 328.395 201.292 327.979 200.832C327.564 200.372 327.356 199.838 327.356 199.2C327.356 198.562 327.564 198.057 327.979 197.598C328.395 197.152 328.914 196.915 329.552 196.915C330.145 196.915 330.65 197.138 331.08 197.598C331.51 198.057 331.718 198.577 331.718 199.2C331.718 199.823 331.51 200.357 331.08 200.817C330.65 201.292 330.145 201.515 329.552 201.515ZM327.757 204.452H331.288V222.88H327.757V204.452Z" fill="#464B60"/>
<path d="M336.567 219.111C337.353 219.675 338.243 220.076 339.267 220.298C340.276 220.536 341.255 220.654 342.19 220.654C342.561 220.654 342.962 220.61 343.392 220.521C343.822 220.432 344.208 220.298 344.549 220.12C344.89 219.927 345.172 219.675 345.41 219.364C345.647 219.037 345.751 218.666 345.751 218.221C345.751 217.613 345.558 217.138 345.157 216.826C344.772 216.515 344.282 216.263 343.733 216.055C343.199 215.862 342.591 215.699 341.908 215.58C341.226 215.461 340.543 215.298 339.831 215.105C339.148 214.942 338.481 214.734 337.828 214.482C337.175 214.245 336.611 213.918 336.122 213.503C335.632 213.102 335.246 212.583 334.95 211.96C334.653 211.337 334.504 210.565 334.504 209.66C334.504 208.681 334.697 207.835 335.098 207.123C335.484 206.411 336.018 205.817 336.671 205.357C337.338 204.897 338.095 204.541 338.956 204.304C339.816 204.081 340.691 203.963 341.597 203.963C342.873 203.963 344.104 204.126 345.321 204.438C346.537 204.764 347.65 205.313 348.674 206.084L346.878 208.221C346.122 207.657 345.276 207.257 344.341 207.034C343.407 206.797 342.487 206.678 341.582 206.678C341.24 206.678 340.869 206.708 340.484 206.767C340.098 206.826 339.727 206.96 339.386 207.153C338.985 207.331 338.674 207.568 338.407 207.865C338.154 208.162 338.021 208.577 338.021 209.096C338.021 209.393 338.095 209.645 338.229 209.868C338.362 210.09 338.525 210.268 338.703 210.432C338.881 210.595 339.074 210.728 339.282 210.832C339.49 210.936 339.683 211.04 339.846 211.114C340.261 211.277 340.691 211.426 341.107 211.515C341.537 211.619 341.967 211.723 342.413 211.812L343.407 211.99C344.223 212.168 344.979 212.375 345.692 212.628C346.404 212.88 347.012 213.236 347.531 213.681C348.051 214.126 348.451 214.66 348.763 215.313C349.074 215.966 349.223 216.752 349.223 217.687C349.223 218.622 349.03 219.467 348.629 220.18C348.229 220.892 347.709 221.485 347.042 221.93C346.374 222.405 345.632 222.746 344.786 222.984C343.941 223.221 343.065 223.325 342.16 223.325C340.855 223.325 339.564 223.177 338.273 222.85C336.967 222.524 335.795 221.975 334.742 221.203L336.537 219.067L336.567 219.111Z" fill="#464B60"/>
<path d="M351.153 206.708V204.468H354.313V197.42H357.799V204.468H362.162V206.708H357.799V216.916C357.799 217.717 357.918 218.37 358.156 218.845C358.378 219.319 358.705 219.69 359.09 219.943C359.476 220.195 359.951 220.388 360.485 220.477C361.019 220.581 361.583 220.64 362.176 220.655V223.37C361.004 223.34 359.936 223.236 358.957 223.029C357.992 222.821 357.161 222.465 356.479 221.96C355.796 221.456 355.262 220.788 354.877 219.957C354.491 219.127 354.298 218.058 354.298 216.767V206.708H351.138H351.153Z" fill="#464B60"/>
<path d="M378.423 201.515C377.785 201.515 377.251 201.292 376.85 200.832C376.435 200.372 376.227 199.838 376.227 199.2C376.227 198.562 376.435 198.057 376.85 197.598C377.266 197.152 377.8 196.915 378.423 196.915C379.016 196.915 379.521 197.138 379.951 197.598C380.367 198.057 380.589 198.577 380.589 199.2C380.589 199.823 380.367 200.357 379.951 200.817C379.521 201.292 379.016 201.515 378.423 201.515ZM376.628 204.452H380.159V222.88H376.628V204.452Z" fill="#464B60"/>
<path d="M386.584 204.453L387.727 207.539L388.127 207.094C389.107 205.996 390.145 205.194 391.228 204.705C392.326 204.215 393.587 203.978 395.026 203.978C396.466 203.978 397.608 204.23 398.498 204.734C399.389 205.239 400.086 205.921 400.59 206.797C401.095 207.657 401.436 208.666 401.614 209.809C401.792 210.951 401.881 212.168 401.881 213.459V222.895H398.395V214.082C398.395 213.266 398.365 212.435 398.305 211.56C398.246 210.684 398.068 209.898 397.786 209.171C397.504 208.444 397.074 207.85 396.481 207.39C395.887 206.916 395.056 206.693 393.988 206.693C392.756 206.693 391.673 207.049 390.709 207.776C389.745 208.503 388.988 209.393 388.454 210.447C388.335 210.64 388.216 210.862 388.098 211.1C387.994 211.337 387.905 211.574 387.831 211.797C387.786 211.945 387.756 212.212 387.756 212.598V213.815C387.756 214.23 387.756 214.631 387.771 215.031C387.771 215.417 387.786 215.699 387.786 215.877V222.88H384.255V204.453H386.584Z" fill="#464B60"/>
<path d="M416.835 204.453H419.15L420.292 207.539L420.693 207.094C421.672 205.996 422.711 205.194 423.794 204.705C424.892 204.215 426.153 203.978 427.592 203.978C429.031 203.978 430.144 204.215 431.064 204.69C431.984 205.165 432.755 206.025 433.393 207.286L433.942 208.31L434.714 207.361C435.619 206.189 436.643 205.328 437.755 204.794C438.883 204.26 440.174 203.978 441.643 203.978C443.112 203.978 444.224 204.245 445.115 204.749C446.005 205.254 446.702 205.951 447.221 206.797C447.741 207.657 448.082 208.666 448.26 209.809C448.453 210.966 448.542 212.168 448.542 213.444V222.88H445.011V214.067C445.011 213.251 444.981 212.42 444.937 211.545C444.892 210.669 444.729 209.883 444.432 209.156C444.15 208.429 443.72 207.835 443.126 207.375C442.533 206.901 441.702 206.678 440.634 206.678C439.951 206.678 439.298 206.797 438.675 207.034C438.052 207.286 437.474 207.613 436.954 208.028C436.435 208.444 435.975 208.933 435.589 209.497C435.218 210.061 434.907 210.654 434.699 211.292C434.551 211.56 434.462 211.797 434.447 211.99C434.402 212.227 434.402 212.42 434.447 212.568V212.717L434.476 212.939V215.551L434.447 220.402V222.865H430.96V214.052C430.96 213.236 430.93 212.405 430.871 211.53C430.812 210.654 430.634 209.868 430.352 209.141C430.07 208.414 429.64 207.821 429.046 207.361C428.453 206.886 427.622 206.663 426.554 206.663C425.767 206.663 425.055 206.812 424.402 207.079C423.749 207.361 423.185 207.732 422.681 208.206C422.177 208.666 421.746 209.215 421.361 209.824C420.99 210.432 420.678 211.07 420.426 211.738C420.411 211.812 420.381 212.019 420.366 212.361C420.366 212.702 420.337 213.117 420.337 213.622C420.337 214.126 420.322 214.69 420.322 215.313V217.198C420.322 218.355 420.322 219.453 420.337 220.506C420.337 221.56 420.352 222.346 420.352 222.851H416.82V204.423L416.835 204.453Z" fill="#464B60"/>
<path d="M467.593 220.803C466.658 221.708 465.605 222.361 464.418 222.776C463.231 223.177 461.985 223.37 460.694 223.37C459.299 223.37 458.008 223.147 456.836 222.672C455.664 222.212 454.655 221.559 453.809 220.729C452.964 219.898 452.296 218.904 451.821 217.717C451.346 216.545 451.109 215.239 451.109 213.829C451.109 212.42 451.332 211.025 451.791 209.823C452.251 208.622 452.889 207.583 453.72 206.722C454.551 205.862 455.56 205.179 456.732 204.705C457.904 204.23 459.225 203.992 460.694 203.992C461.985 203.992 463.231 204.185 464.418 204.601C465.605 205.001 466.658 205.654 467.593 206.559L467.964 206.96L469.032 204.467H471.302V222.91H469.032L467.964 220.417L467.593 220.818V220.803ZM460.976 220.654C462.029 220.654 462.964 220.491 463.765 220.165C464.566 219.824 465.249 219.364 465.798 218.77C466.347 218.177 466.762 217.45 467.044 216.619C467.326 215.788 467.474 214.853 467.474 213.829C467.474 212.806 467.341 211.856 467.074 210.981C466.807 210.105 466.406 209.349 465.887 208.725C465.367 208.087 464.685 207.598 463.869 207.242C463.053 206.886 462.088 206.708 460.99 206.708C459.893 206.708 458.928 206.886 458.127 207.242C457.326 207.598 456.658 208.087 456.139 208.725C455.619 209.363 455.249 210.12 454.996 210.981C454.744 211.841 454.625 212.791 454.625 213.829C454.625 214.868 454.774 215.714 455.041 216.559C455.323 217.405 455.723 218.132 456.257 218.726C456.792 219.319 457.444 219.794 458.246 220.135C459.047 220.476 459.952 220.654 460.99 220.654" fill="#464B60"/>
<path d="M490.8 220.803C489.865 221.708 488.812 222.361 487.625 222.776C486.438 223.177 485.192 223.37 483.901 223.37C482.506 223.37 481.215 223.147 480.043 222.672C478.871 222.212 477.862 221.559 477.017 220.729C476.171 219.898 475.518 218.904 475.028 217.717C474.554 216.545 474.316 215.239 474.316 213.829C474.316 212.42 474.539 211.025 474.999 209.823C475.459 208.622 476.097 207.583 476.928 206.722C477.758 205.862 478.767 205.179 479.939 204.705C481.112 204.23 482.432 203.992 483.901 203.992C485.192 203.992 486.438 204.185 487.625 204.601C488.812 205.001 489.865 205.654 490.8 206.559L491.171 206.96L492.239 204.467H494.509V222.91H492.239L491.171 220.417L490.8 220.818V220.803ZM484.183 220.654C485.236 220.654 486.171 220.491 486.972 220.165C487.773 219.824 488.456 219.364 489.005 218.77C489.554 218.177 489.969 217.45 490.251 216.619C490.533 215.788 490.682 214.853 490.682 213.829C490.682 212.806 490.548 211.856 490.281 210.981C490.014 210.105 489.613 209.349 489.094 208.725C488.575 208.087 487.892 207.598 487.076 207.242C486.26 206.886 485.296 206.708 484.198 206.708C483.1 206.708 482.135 206.886 481.334 207.242C480.533 207.598 479.865 208.087 479.346 208.725C478.827 209.363 478.456 210.12 478.204 210.981C477.951 211.841 477.833 212.791 477.833 213.829C477.833 214.868 477.981 215.714 478.248 216.559C478.53 217.405 478.931 218.132 479.465 218.726C479.999 219.319 480.652 219.794 481.453 220.135C482.254 220.476 483.159 220.654 484.198 220.654" fill="#464B60"/>
<path d="M502.222 226.129C502.935 226.693 503.721 227.079 504.567 227.301C505.427 227.524 506.273 227.628 507.133 227.628C508.899 227.628 510.353 227.198 511.481 226.322C512.623 225.462 513.38 224.141 513.78 222.375L514.077 220.758L512.579 221.708C511.674 222.272 510.783 222.687 509.893 222.954C509.018 223.221 508.024 223.355 506.911 223.355C505.516 223.355 504.24 223.132 503.098 222.657C501.955 222.197 500.961 221.545 500.116 220.699C499.285 219.853 498.647 218.844 498.187 217.672C497.727 216.5 497.504 215.209 497.504 213.815C497.504 212.42 497.727 211.04 498.172 209.853C498.617 208.651 499.24 207.613 500.041 206.752C500.857 205.877 501.837 205.209 502.994 204.719C504.151 204.23 505.457 203.992 506.911 203.992C508.157 203.992 509.374 204.185 510.561 204.601C511.748 205.001 512.786 205.639 513.662 206.53L514.062 206.93L515.131 204.467H517.371V220.847C517.371 222.346 517.104 223.681 516.57 224.853C516.036 226.025 515.309 227.019 514.389 227.85C513.469 228.666 512.386 229.304 511.139 229.72C509.893 230.15 508.558 230.358 507.133 230.358C505.932 230.358 504.745 230.195 503.573 229.868C502.4 229.542 501.317 229.022 500.338 228.31L502.208 226.144L502.222 226.129ZM507.252 220.654C508.306 220.654 509.225 220.476 510.012 220.135C510.798 219.794 511.451 219.319 511.985 218.696C512.504 218.088 512.905 217.361 513.157 216.53C513.41 215.699 513.543 214.794 513.543 213.815C513.543 212.835 513.424 211.886 513.172 211.025C512.935 210.165 512.549 209.423 512.059 208.77C511.555 208.117 510.902 207.613 510.116 207.242C509.314 206.871 508.365 206.693 507.267 206.693C506.169 206.693 505.219 206.871 504.433 207.242C503.647 207.613 503.009 208.117 502.504 208.77C502 209.423 501.629 210.179 501.406 211.025C501.169 211.886 501.05 212.806 501.05 213.815C501.05 214.823 501.184 215.699 501.436 216.53C501.688 217.361 502.074 218.088 502.593 218.696C503.113 219.304 503.765 219.779 504.537 220.135C505.323 220.476 506.228 220.654 507.252 220.654Z" fill="#464B60"/>
<path d="M520.027 204.452H523.81L529.018 217.865L534.196 204.452H538.128L530.902 222.895H527.193L520.027 204.452Z" fill="#464B60"/>
<path d="M542.608 215.402C542.95 217.094 543.647 218.385 544.7 219.29C545.754 220.195 547.148 220.655 548.884 220.655C549.745 220.655 550.605 220.551 551.481 220.328C552.341 220.106 553.143 219.72 553.855 219.156L555.769 221.278C554.79 222.034 553.706 222.583 552.534 222.895C551.362 223.207 550.145 223.37 548.899 223.37C547.505 223.37 546.199 223.147 544.982 222.687C543.766 222.227 542.727 221.589 541.837 220.758C540.961 219.928 540.264 218.919 539.76 217.747C539.255 216.574 539.003 215.254 539.003 213.815C539.003 212.376 539.24 211.085 539.7 209.883C540.16 208.681 540.828 207.643 541.674 206.767C542.519 205.892 543.528 205.194 544.7 204.705C545.872 204.215 547.178 203.978 548.588 203.978C549.997 203.978 551.303 204.23 552.401 204.734C553.499 205.239 554.433 205.936 555.19 206.812C555.947 207.702 556.525 208.74 556.896 209.957C557.267 211.174 557.46 212.479 557.46 213.874V214.972H542.519L542.593 215.402H542.608ZM554.062 212.687L554.033 212.287C553.959 211.5 553.795 210.773 553.558 210.091C553.321 209.408 552.965 208.815 552.519 208.31C552.059 207.806 551.51 207.42 550.872 207.123C550.22 206.841 549.478 206.708 548.617 206.708C546.97 206.708 545.65 207.183 544.641 208.117C543.617 209.052 542.979 210.328 542.712 211.916C542.712 211.99 542.712 212.064 542.697 212.108C542.697 212.168 542.682 212.227 542.682 212.272L542.638 212.672H554.092L554.062 212.687Z" fill="#464B60"/>
<path d="M560.503 204.452H562.818L563.99 207.494L564.361 207.049C566.052 205.165 568.085 204.141 570.489 203.963V207.702C569.361 207.731 568.293 207.924 567.299 208.31C566.29 208.696 565.444 209.423 564.762 210.536C564.717 210.58 564.643 210.669 564.554 210.788C564.465 210.906 564.391 211.04 564.317 211.159C564.242 211.307 564.183 211.455 564.138 211.604C564.109 211.678 564.094 211.752 564.064 211.826C564.035 211.901 564.035 211.96 564.035 212.004C563.99 212.642 563.975 213.28 563.99 213.933C564.02 214.586 564.035 215.224 564.035 215.862V222.865H560.503V204.438V204.452Z" fill="#464B60"/>
<path d="M576.72 197.405V212.36L584.109 204.452H588.961L581.275 211.989L590.133 222.895H585.43L578.708 214.586L576.72 216.47V222.895H573.204V197.405H576.72Z" fill="#464B60"/>
<path d="M596.704 197.405H593.173V222.895H596.704V197.405Z" fill="#464B60"/>
<path d="M603.635 215.402C603.976 217.094 604.673 218.385 605.727 219.29C606.78 220.195 608.175 220.655 609.911 220.655C610.771 220.655 611.632 220.551 612.507 220.328C613.383 220.106 614.169 219.72 614.881 219.156L616.795 221.278C615.816 222.034 614.733 222.583 613.561 222.895C612.388 223.207 611.172 223.37 609.926 223.37C608.531 223.37 607.225 223.147 606.009 222.687C604.792 222.227 603.753 221.589 602.863 220.758C601.988 219.928 601.29 218.919 600.786 217.747C600.281 216.574 600.029 215.254 600.029 213.815C600.029 212.376 600.267 211.085 600.727 209.883C601.187 208.681 601.854 207.643 602.7 206.767C603.546 205.892 604.555 205.194 605.727 204.705C606.899 204.215 608.204 203.978 609.614 203.978C611.023 203.978 612.329 204.23 613.427 204.734C614.525 205.239 615.46 205.936 616.216 206.812C616.973 207.702 617.552 208.74 617.923 209.957C618.294 211.174 618.486 212.479 618.486 213.874V214.972H603.546L603.62 215.402H603.635ZM615.104 212.687L615.059 212.287C614.985 211.5 614.822 210.773 614.584 210.091C614.347 209.408 613.991 208.815 613.531 208.31C613.071 207.806 612.522 207.42 611.884 207.123C611.231 206.841 610.474 206.708 609.629 206.708C607.997 206.708 606.661 207.183 605.652 208.117C604.629 209.052 603.991 210.328 603.724 211.916C603.724 211.99 603.724 212.064 603.709 212.108C603.709 212.168 603.694 212.227 603.694 212.272L603.664 212.672H615.119L615.104 212.687Z" fill="#464B60"/>
<path d="M623.323 201.515C622.685 201.515 622.166 201.292 621.751 200.832C621.335 200.372 621.127 199.838 621.127 199.2C621.127 198.562 621.335 198.057 621.751 197.598C622.166 197.152 622.685 196.915 623.323 196.915C623.917 196.915 624.421 197.138 624.852 197.598C625.282 198.057 625.489 198.577 625.489 199.2C625.489 199.823 625.267 200.357 624.852 200.817C624.421 201.292 623.917 201.515 623.323 201.515ZM621.528 204.452H625.059V222.88H621.528V204.452Z" fill="#464B60"/>
<path d="M631.485 204.453L632.627 207.539L633.028 207.094C634.007 205.996 635.046 205.194 636.129 204.705C637.227 204.215 638.488 203.978 639.927 203.978C641.366 203.978 642.509 204.23 643.399 204.734C644.289 205.239 644.986 205.921 645.491 206.797C645.995 207.657 646.337 208.666 646.515 209.809C646.693 210.951 646.782 212.168 646.782 213.459V222.895H643.295V214.082C643.295 213.266 643.265 212.435 643.206 211.56C643.147 210.684 642.969 209.898 642.687 209.171C642.405 208.444 641.974 207.85 641.381 207.39C640.787 206.916 639.957 206.693 638.888 206.693C637.657 206.693 636.574 207.049 635.609 207.776C634.645 208.503 633.888 209.393 633.354 210.447C633.235 210.64 633.117 210.862 632.998 211.1C632.894 211.337 632.79 211.574 632.731 211.797C632.686 211.945 632.657 212.212 632.657 212.598V213.815C632.657 214.23 632.657 214.631 632.672 215.031C632.672 215.417 632.686 215.699 632.686 215.877V222.88H629.155V204.453H631.485Z" fill="#464B60"/>
<path d="M651.972 201.515C651.334 201.515 650.815 201.292 650.4 200.832C649.984 200.372 649.776 199.838 649.776 199.2C649.776 198.562 649.984 198.057 650.4 197.598C650.815 197.152 651.334 196.915 651.972 196.915C652.566 196.915 653.07 197.138 653.501 197.598C653.931 198.057 654.139 198.577 654.139 199.2C654.139 199.823 653.916 200.357 653.501 200.817C653.07 201.292 652.566 201.515 651.972 201.515ZM650.162 204.452H653.693V222.88H650.162V204.452Z" fill="#464B60"/>
<path d="M660.117 204.453L661.26 207.539L661.661 207.094C662.64 205.996 663.678 205.194 664.761 204.705C665.859 204.215 667.121 203.978 668.56 203.978C669.999 203.978 671.141 204.23 672.032 204.734C672.922 205.239 673.619 205.921 674.124 206.797C674.628 207.657 674.969 208.666 675.147 209.809C675.325 210.951 675.414 212.168 675.414 213.459V222.895H671.928V214.082C671.928 213.266 671.898 212.435 671.839 211.56C671.779 210.684 671.601 209.898 671.319 209.171C671.038 208.444 670.607 207.85 670.014 207.39C669.42 206.916 668.589 206.693 667.521 206.693C666.29 206.693 665.207 207.049 664.242 207.776C663.278 208.503 662.521 209.393 661.987 210.447C661.868 210.64 661.75 210.862 661.631 211.1C661.527 211.337 661.423 211.574 661.364 211.797C661.319 211.945 661.29 212.212 661.29 212.598V213.815C661.29 214.23 661.29 214.631 661.304 215.031C661.304 215.417 661.319 215.699 661.319 215.877V222.88H657.788V204.453H660.117Z" fill="#464B60"/>
<path d="M682.952 226.129C683.664 226.693 684.451 227.079 685.296 227.301C686.157 227.524 687.003 227.628 687.863 227.628C689.629 227.628 691.083 227.198 692.21 226.322C693.353 225.462 694.11 224.141 694.51 222.375L694.807 220.758L693.308 221.708C692.403 222.272 691.513 222.687 690.623 222.954C689.747 223.221 688.753 223.355 687.641 223.355C686.246 223.355 684.97 223.132 683.828 222.657C682.685 222.197 681.691 221.545 680.845 220.699C680.014 219.853 679.376 218.844 678.917 217.672C678.457 216.5 678.234 215.209 678.234 213.815C678.234 212.42 678.457 211.04 678.902 209.853C679.347 208.651 679.97 207.613 680.771 206.752C681.572 205.877 682.566 205.209 683.724 204.719C684.881 204.23 686.187 203.992 687.641 203.992C688.887 203.992 690.104 204.185 691.291 204.601C692.478 205.001 693.516 205.639 694.391 206.53L694.792 206.93L695.86 204.467H698.101V220.847C698.101 222.346 697.834 223.681 697.3 224.853C696.765 226.025 696.038 227.019 695.118 227.85C694.199 228.666 693.115 229.304 691.869 229.72C690.623 230.15 689.288 230.358 687.863 230.358C686.661 230.358 685.474 230.195 684.302 229.868C683.13 229.542 682.047 229.022 681.068 228.31L682.937 226.144L682.952 226.129ZM687.997 220.654C689.05 220.654 689.97 220.476 690.756 220.135C691.543 219.794 692.196 219.319 692.73 218.696C693.249 218.088 693.65 217.361 693.902 216.53C694.154 215.699 694.288 214.794 694.288 213.815C694.288 212.835 694.169 211.886 693.917 211.025C693.679 210.165 693.294 209.423 692.804 208.77C692.299 208.117 691.647 207.613 690.86 207.242C690.059 206.871 689.11 206.693 688.012 206.693C686.914 206.693 685.964 206.871 685.178 207.242C684.391 207.613 683.753 208.117 683.249 208.77C682.744 209.423 682.374 210.179 682.151 211.025C681.914 211.886 681.795 212.806 681.795 213.815C681.795 214.823 681.928 215.699 682.181 216.53C682.433 217.361 682.819 218.088 683.338 218.696C683.857 219.304 684.51 219.779 685.282 220.135C686.068 220.476 686.973 220.654 687.997 220.654Z" fill="#464B60"/>
<path d="M704.735 215.402C705.076 217.094 705.774 218.385 706.827 219.29C707.881 220.195 709.275 220.655 711.011 220.655C711.872 220.655 712.732 220.551 713.608 220.328C714.483 220.106 715.269 219.72 715.982 219.156L717.896 221.278C716.916 222.034 715.833 222.583 714.661 222.895C713.489 223.207 712.272 223.37 711.026 223.37C709.631 223.37 708.326 223.147 707.109 222.687C705.892 222.227 704.854 221.589 703.964 220.758C703.088 219.928 702.391 218.919 701.886 217.747C701.382 216.574 701.13 215.254 701.13 213.815C701.13 212.376 701.367 211.085 701.827 209.883C702.287 208.681 702.955 207.643 703.8 206.767C704.646 205.892 705.655 205.194 706.827 204.705C707.999 204.215 709.305 203.978 710.714 203.978C712.124 203.978 713.43 204.23 714.528 204.734C715.626 205.239 716.56 205.936 717.317 206.812C718.074 207.702 718.652 208.74 719.023 209.957C719.394 211.174 719.587 212.479 719.587 213.874V214.972H704.646L704.72 215.402H704.735ZM716.189 212.687L716.145 212.287C716.071 211.5 715.907 210.773 715.67 210.091C715.433 209.408 715.077 208.815 714.631 208.31C714.171 207.806 713.623 207.42 712.985 207.123C712.332 206.841 711.59 206.708 710.729 206.708C709.082 206.708 707.762 207.183 706.753 208.117C705.729 209.052 705.091 210.328 704.824 211.916C704.824 211.99 704.824 212.064 704.809 212.108C704.809 212.168 704.795 212.227 704.795 212.272L704.765 212.672H716.219L716.189 212.687Z" fill="#464B60"/>
<path d="M724.927 204.453L726.07 207.539L726.47 207.094C727.45 205.996 728.488 205.194 729.571 204.705C730.669 204.215 731.93 203.978 733.37 203.978C734.809 203.978 735.951 204.23 736.841 204.734C737.732 205.239 738.429 205.921 738.933 206.797C739.438 207.657 739.779 208.666 739.957 209.809C740.135 210.951 740.224 212.168 740.224 213.459V222.895H736.738V214.082C736.738 213.266 736.708 212.435 736.649 211.56C736.589 210.684 736.411 209.898 736.129 209.171C735.847 208.444 735.417 207.85 734.824 207.39C734.23 206.916 733.399 206.693 732.331 206.693C731.099 206.693 730.016 207.049 729.052 207.776C728.088 208.503 727.331 209.393 726.797 210.447C726.678 210.64 726.559 210.862 726.441 211.1C726.337 211.337 726.233 211.574 726.174 211.797C726.129 211.945 726.099 212.212 726.099 212.598V213.815C726.099 214.23 726.099 214.631 726.114 215.031C726.114 215.417 726.129 215.699 726.129 215.877V222.88H722.598V204.453H724.927Z" fill="#464B60"/>
</g>
<defs>
<clipPath id="clip0_9273_1175">
<rect width="785" height="232.593" fill="white"/>
</clipPath>
</defs>
</svg>
